<svg width="170" height="131" viewBox="0 0 170 131" fill="none" xmlns="http://www.w3.org/2000/svg">
<path d="M84.3007 5.16426L109.126 4.37842H139.029H167.239L159.851 16.8045H126.301L72.8689 26.7453L48.0169 20.5323L44.2891 11.834L59.2003 4.37842L76.5968 9.34883L79.082 6.86363L84.3007 5.16426Z" fill="#01BD82"/>
<path d="M48.0158 13.0767C46.2619 11.3227 54.0499 7.50563 59.6061 5.20872C60.7643 4.72995 61.3725 3.44235 60.9762 2.25345C60.6571 1.29626 59.7831 0.807307 58.8439 1.17596C55.5139 2.48301 47.8888 5.95125 42.6333 8.38523C41.3014 9.00208 40.2749 10.0992 39.7531 11.4711C28.8437 40.1572 7.84947 95.3294 1.63854 111.535C1.09309 112.958 1.12818 114.529 1.9046 115.841C7.45649 125.219 17.8383 127.297 24.1315 127.453C25.8755 127.496 27.4579 126.547 28.4256 125.095L45.6444 99.2669C46.3954 98.1404 47.0435 96.9486 47.5809 95.7059L66.6549 51.5974C67.3513 70.0517 68.6331 104.897 69.0239 118.488C69.1186 121.78 70.5126 125.024 73.3571 126.686C78.7885 129.858 83.7954 130.211 86.7649 129.881C87.5879 129.881 88.4056 129.749 89.1863 129.488L91.7353 128.639C93.5828 127.715 95.9944 125.631 97.6209 123.601C98.3602 122.679 99.8286 122.495 100.684 123.311C109.333 131.562 119.315 133.099 129.224 122.754C129.81 122.142 130.804 122.15 131.351 122.797C135.117 127.256 140.796 129.675 146.623 129.329C153.697 128.907 159.96 124.51 162.724 117.984L168.003 105.521C169.183 102.737 169.791 99.7431 169.791 96.7187V3.02165C169.791 2.39845 169.286 1.89324 168.663 1.89324H165.915C165.675 1.89324 165.441 1.96989 165.248 2.11204L155.479 9.28322C155.421 9.32587 155.351 9.34886 155.279 9.34886H137.232C136.906 9.34886 136.768 8.93274 137.03 8.73841L143.518 3.92808C144.391 3.28032 143.933 1.89324 142.845 1.89324H138.734C138.556 1.89324 138.381 1.9353 138.222 2.01599L124.035 9.2365C123.89 9.31052 123.73 9.35212 123.567 9.35841L105.789 10.0443C104.58 10.091 104.155 8.4609 105.233 7.91146L112.852 4.02695C113.909 3.48828 113.526 1.89324 112.34 1.89324H108.234C108.077 1.89324 107.922 1.92578 107.779 1.9888L89.39 10.0802C89.1464 10.1873 88.8858 10.2506 88.6202 10.267L77.8797 10.9306C76.6314 11.0077 76.2536 9.26682 77.4217 8.81962L87.5082 4.95793C88.3109 4.6506 88.6612 3.70811 88.254 2.95112C87.9252 2.33988 87.204 2.05423 86.5459 2.27454L66.481 8.99112C65.8905 9.18877 65.5748 9.83005 65.6464 10.4486C65.9506 13.0751 64.8834 16.9801 62.2956 18.7053C58.5678 21.1905 50.5011 15.5619 48.0158 13.0767Z" fill="#0E1F38"/>
</svg>
