<svg width="372" height="395" viewBox="0 0 372 395" fill="none" xmlns="http://www.w3.org/2000/svg">
<g clip-path="url(#clip0_2002_608)">
<rect width="372" height="395" rx="20" fill="#E4E4E4"/>
<rect x="-26.3704" y="364.872" width="184" height="71" rx="35.5" transform="rotate(-17.9225 -26.3704 364.872)" fill="#FEC726"/>
<rect x="-26.3704" y="364.872" width="184" height="71" rx="35.5" transform="rotate(-17.9225 -26.3704 364.872)" stroke="white"/>
<path d="M44.0929 392.005L40.5306 393.157L27.2166 372.113L29.9569 371.226L38.6908 385.012L41.5484 390.103L41.7539 390.037L41.4653 384.114L41.3631 367.537L44.7199 366.452L54.3102 379.96L57.5788 384.919L57.7501 384.863L57.119 379.051L56.1262 362.762L58.8322 361.887L60.3289 386.753L56.8008 387.894L48.5361 376.379L44.1081 369.941L43.8683 370.019L44.0147 377.841L44.0929 392.005ZM73.3049 382.935C68.0984 384.619 64.207 381.829 62.5453 376.691C60.8836 371.553 62.7467 366.902 67.5764 365.34C71.6525 364.022 75.8069 365.402 77.4244 370.403C77.6792 371.191 77.8544 371.967 77.9067 372.479L65.0961 376.623C66.4064 380.323 68.5883 382.039 72.6301 380.732C76.0554 379.624 76.927 377.639 76.2623 375.584L76.1959 375.379L78.6278 374.592L78.7054 374.832C79.7578 378.086 77.6208 381.539 73.3049 382.935ZM68.1947 367.486C64.4269 368.704 63.6177 371.35 64.52 374.842L75.1727 371.396C74.0136 367.344 71.5173 366.411 68.1947 367.486ZM84.652 378.887L82.4256 379.607L75.0031 356.657L77.4693 355.86L80.4605 365.108C80.6158 363.015 82.1513 360.626 85.4054 359.574C90.0295 358.078 93.6489 360.729 95.3771 366.072C97.1053 371.416 95.5868 375.728 90.8256 377.268C87.64 378.299 85.1427 377.479 83.7023 375.599L83.5996 375.633L84.652 378.887ZM82.6318 371.822C83.7507 375.281 86.3709 376.363 89.7277 375.278C93.0502 374.203 94.5837 372.042 92.9109 366.87C91.2381 361.698 88.6954 360.855 85.4071 361.919C82.0503 363.005 80.5602 365.416 81.6901 368.91L82.6318 371.822ZM108.151 371.665C101.883 373.692 98.4093 371.259 97.0688 367.114L96.8916 366.566L99.3235 365.78L99.4676 366.225C100.609 369.753 102.453 371.011 107.42 369.404C111.667 368.03 112.822 366.219 111.803 363.068C110.75 359.814 108.651 359.055 104.849 360.285L100.704 361.625L100.028 359.536L103.659 358.362C107.393 357.154 108.592 355.48 107.683 352.671C106.775 349.862 104.972 349.083 100.998 350.369C96.4084 351.853 95.5126 353.997 96.6537 357.525L96.7534 357.833L94.3214 358.62L94.1885 358.209C92.848 354.064 94.5469 349.958 100.301 348.097C105.2 346.513 108.798 347.695 110.05 351.565C110.892 354.168 110.141 356.644 107.43 358.088L107.474 358.225C110.837 357.743 113.305 359.29 114.335 362.476C115.709 366.723 113.186 370.036 108.151 371.665Z" fill="#FAFAFA"/>
<path d="M146.347 285.645C155.555 268.335 177.051 261.767 194.361 270.975L350.628 354.098C367.938 363.306 374.506 384.802 365.298 402.112C356.091 419.421 334.594 425.989 317.285 416.782L161.017 333.658C143.708 324.451 137.14 302.954 146.347 285.645Z" fill="#0E1F38"/>
<path d="M146.347 285.645C155.555 268.335 177.051 261.767 194.361 270.975L350.628 354.098C367.938 363.306 374.506 384.802 365.298 402.112C356.091 419.421 334.594 425.989 317.285 416.782L161.017 333.658C143.708 324.451 137.14 302.954 146.347 285.645Z" stroke="white"/>
<path d="M194.152 324.666L184.649 319.611L195.977 298.317L205.226 303.236C209.071 305.282 210.682 308.463 208.822 311.959C207.554 314.343 205.226 315.347 202.286 314.436L202.184 314.626C205.029 316.792 205.519 319.703 204.065 322.436C202.104 326.123 198.284 326.864 194.152 324.666ZM197.134 301.583L193.33 308.734L200.005 312.284C203.12 313.941 204.995 313.634 206.348 311.092C207.701 308.549 207.114 306.892 204 305.235L197.134 301.583ZM192.299 310.673L188.005 318.746L195.188 322.567C198.366 324.257 200.356 323.889 201.912 320.965C203.45 318.072 202.629 316.167 199.482 314.494L192.299 310.673ZM204.936 330.402L202.648 329.185L213.975 307.89L216.263 309.108L204.936 330.402ZM213.91 335.584C209.302 333.133 208.091 328.126 210.627 323.358C213.163 318.591 217.992 316.796 222.6 319.248C227.177 321.682 228.292 326.638 225.756 331.406C223.22 336.173 218.487 338.019 213.91 335.584ZM214.992 333.55C218.775 335.562 221.452 334.132 223.531 330.222C225.611 326.313 225.284 323.325 221.501 321.313C217.656 319.268 214.964 320.649 212.884 324.559C210.805 328.468 211.147 331.504 214.992 333.55ZM229.844 344.1C225.204 341.632 224.216 336.743 226.752 331.976C229.305 327.177 233.91 325.264 238.551 327.732C242.556 329.862 243.888 333.874 241.926 337.561L241.808 337.783L239.552 336.583L239.653 336.392C241.107 333.659 240.44 331.387 237.357 329.747C233.765 327.837 231.071 329.299 229.008 333.176C226.963 337.022 227.256 340.073 230.848 341.984C233.931 343.624 236.187 342.908 237.641 340.174L237.743 339.984L239.999 341.184L239.881 341.406C237.92 345.093 233.849 346.231 229.844 344.1ZM240.572 349.358L238.283 348.141L249.611 326.846L251.899 328.063L245.424 340.236L249.365 342.333L257.632 338.29L260.302 339.71L250.752 344.172L251.823 355.343L249.153 353.923L248.266 344.399L244.325 342.302L240.572 349.358ZM258.588 359.39C253.948 356.922 252.96 352.033 255.496 347.266C258.048 342.467 262.654 340.554 267.295 343.022C271.299 345.152 272.632 349.164 270.67 352.85L270.552 353.073L268.295 351.873L268.397 351.682C269.851 348.949 269.183 346.677 266.1 345.037C262.509 343.127 259.815 344.589 257.752 348.466C255.707 352.312 256 355.363 259.591 357.274C262.674 358.914 264.931 358.197 266.385 355.464L266.486 355.273L268.743 356.474L268.625 356.696C266.664 360.383 262.593 361.52 258.588 359.39ZM269.315 364.648L267.027 363.431L278.354 342.136L280.643 343.353L276.112 351.871L276.239 351.939C277.637 350.766 280.188 349.88 283.367 351.571C287.467 353.752 287.761 357.415 285.85 361.007L280.694 370.701L278.437 369.5L283.289 360.378C285.098 356.978 284.749 354.875 281.57 353.185C278.424 351.511 275.993 352.094 274.117 355.622L269.315 364.648ZM287.166 374.551C284.305 373.029 282.922 370.418 284.325 367.78C285.779 365.046 288.455 364.921 292.142 366.27L298.078 368.449L298.686 367.304C300.157 364.539 299.573 362.801 296.617 361.229C293.757 359.708 291.83 360.11 290.494 362.621L290.241 363.097L288.048 361.931L288.183 361.677C289.924 358.403 293.822 357.132 297.89 359.296C302.085 361.528 302.555 365.244 300.695 368.74L295.471 378.561L293.405 377.462L294.944 374.57L294.802 374.454C292.916 375.775 290.153 376.14 287.166 374.551ZM286.634 368.804C285.772 370.425 286.4 371.697 288.816 372.982C291.517 374.419 294.899 374.424 296.877 370.705L297.165 370.165L291.419 368.087C288.722 367.101 287.53 367.12 286.634 368.804ZM309.324 363.095L307.068 361.895L308.927 358.399L311.184 359.599L309.324 363.095ZM299.857 380.894L297.6 379.694L306.053 363.802L308.31 365.002L299.857 380.894ZM304.33 383.274L302.042 382.056L310.394 366.355L312.46 367.454L310.735 370.696L310.831 370.747C312.314 369.415 315.108 368.455 318.35 370.18C322.386 372.327 322.843 375.914 320.831 379.696L315.709 389.326L313.452 388.126L318.304 379.004C320.113 375.603 319.795 373.518 316.585 371.81C313.471 370.153 311.008 370.719 309.149 374.215L304.33 383.274Z" fill="#FAFAFA"/>
<path d="M224.824 247.395C233.372 229.751 254.606 222.377 272.25 230.926L469.337 326.413C486.981 334.962 494.354 356.195 485.806 373.84C477.257 391.484 456.024 398.857 438.379 390.309L241.293 294.821C223.649 286.273 216.275 265.039 224.824 247.395Z" fill="#FE3C77"/>
<path d="M224.824 247.395C233.372 229.751 254.606 222.377 272.25 230.926L469.337 326.413C486.981 334.962 494.354 356.195 485.806 373.84C477.257 391.484 456.024 398.857 438.379 390.309L241.293 294.821C223.649 286.273 216.275 265.039 224.824 247.395Z" stroke="white"/>
<path d="M271.703 283.441L264.381 279.894L274.898 258.187L282.22 261.735C288.764 264.905 290.838 271.111 287.62 277.752C284.403 284.394 278.248 286.612 271.703 283.441ZM281.2 263.841L276.178 261.408L267.702 278.902L272.724 281.335C278.49 284.129 282.334 282.471 285.191 276.575C288.047 270.679 286.966 266.635 281.2 263.841ZM290.735 293.062C285.811 290.676 284.931 285.97 287.286 281.11C289.64 276.25 294.203 274.181 298.771 276.394C302.626 278.262 304.671 282.133 302.38 286.863C302.018 287.608 301.608 288.289 301.291 288.696L289.175 282.825C287.561 286.404 287.949 289.152 291.772 291.005C295.012 292.574 297.014 291.744 297.956 289.8L298.05 289.606L300.351 290.72L300.241 290.947C298.75 294.025 294.818 295.04 290.735 293.062ZM297.733 278.371C294.169 276.645 291.755 277.995 289.991 281.141L300.067 286.022C302.033 282.295 300.876 279.894 297.733 278.371ZM306.511 300.745C301.781 298.454 300.609 293.606 302.964 288.746C305.334 283.854 309.865 281.769 314.595 284.061C318.677 286.038 320.159 289.997 318.338 293.755L318.228 293.982L315.928 292.867L316.022 292.673C317.372 289.887 316.62 287.642 313.477 286.119C309.816 284.346 307.179 285.908 305.264 289.861C303.365 293.781 303.773 296.819 307.434 298.592C310.577 300.115 312.805 299.314 314.154 296.528L314.249 296.334L316.549 297.448L316.439 297.675C314.618 301.433 310.593 302.723 306.511 300.745ZM321.902 308.162C316.977 305.776 316.097 301.07 318.452 296.21C320.806 291.35 325.369 289.281 329.937 291.494C333.793 293.362 335.838 297.233 333.546 301.963C333.185 302.708 332.775 303.389 332.458 303.796L320.341 297.925C318.727 301.504 319.116 304.252 322.939 306.105C326.179 307.674 328.181 306.844 329.123 304.9L329.217 304.706L331.517 305.82L331.407 306.047C329.916 309.125 325.984 310.14 321.902 308.162ZM328.899 293.471C325.336 291.745 322.921 293.095 321.157 296.241L331.233 301.122C333.199 297.395 332.042 294.994 328.899 293.471ZM333.091 313.183L330.759 312.053L338.513 296.049L340.619 297.069L339.018 300.374L339.115 300.421C340.546 299.034 343.303 297.969 346.607 299.57C350.722 301.564 351.314 305.131 349.446 308.986L344.69 318.803L342.389 317.688L346.894 308.39C348.574 304.924 348.178 302.852 344.906 301.266C341.731 299.728 339.291 300.386 337.565 303.95L333.091 313.183ZM352.652 322.701C349.704 321.272 348.552 319.274 350.2 315.872L354.783 306.412L352.094 305.109L353.067 303.101L355.789 304.419L358.317 300.604L360.067 301.451L358.089 305.533L363.143 307.982L362.17 309.991L357.116 307.542L352.47 317.132C351.559 319.011 352.23 319.856 354.303 320.861L356.409 321.881L355.499 323.76C354.901 323.59 353.818 323.266 352.652 322.701ZM358.753 325.616L356.42 324.486L364.268 308.287L366.374 309.308L365.071 311.997L365.233 312.075C366.474 310.836 368.672 310.261 371.037 311.407C374.342 313.008 374.46 315.985 373.125 318.739L372.686 319.646L370.353 318.516L370.62 317.965C371.829 315.47 371.522 314.122 369.222 313.007C366.727 311.799 365.141 312.43 363.885 315.022L358.753 325.616ZM372.566 332.709C369.65 331.296 368.169 328.738 369.472 326.049C370.822 323.263 373.491 323.037 377.226 324.246L383.24 326.199L383.805 325.033C385.171 322.215 384.521 320.5 381.508 319.04C378.592 317.627 376.682 318.102 375.442 320.661L375.207 321.147L372.971 320.064L373.097 319.805C374.714 316.468 378.56 315.052 382.707 317.061C386.984 319.133 387.593 322.828 385.867 326.392L381.016 336.403L378.911 335.383L380.339 332.435L380.193 332.324C378.358 333.715 375.611 334.184 372.566 332.709ZM371.818 326.986C371.017 328.638 371.693 329.886 374.155 331.079C376.909 332.413 380.289 332.29 382.125 328.5L382.392 327.949L376.573 326.089C373.841 325.206 372.65 325.269 371.818 326.986ZM385.616 338.632L383.284 337.501L393.8 315.795L396.133 316.925L385.616 338.632ZM398.929 322.68L396.629 321.566L398.355 318.002L400.655 319.116L398.929 322.68ZM390.139 340.823L387.838 339.708L395.687 323.509L397.987 324.624L390.139 340.823ZM405.533 348.281L390.986 341.233L391.897 339.354L405.771 333.836L408.527 332.771L408.621 332.576L398.222 327.538L399.226 325.464L412.801 332.041L411.828 334.05L397.808 339.538L395.26 340.504L395.166 340.698L406.537 346.208L405.533 348.281ZM412.24 351.931C407.315 349.545 406.435 344.838 408.79 339.978C411.144 335.119 415.707 333.049 420.275 335.262C424.131 337.13 426.176 341.001 423.884 345.731C423.523 346.477 423.113 347.158 422.796 347.564L410.679 341.694C409.065 345.272 409.454 348.021 413.277 349.873C416.517 351.443 418.519 350.613 419.461 348.669L419.555 348.474L421.855 349.589L421.745 349.815C420.254 352.893 416.322 353.908 412.24 351.931ZM419.237 337.24C415.674 335.513 413.259 336.864 411.495 340.009L421.571 344.891C423.537 341.163 422.38 338.762 419.237 337.24ZM427.48 359.315C422.977 357.133 422.035 352.636 424.484 347.582C426.933 342.528 430.915 340.417 435.289 342.537C438.367 344.028 439.558 346.605 439.391 348.684L443.629 339.937L445.962 341.067L435.445 362.773L433.372 361.769L434.863 358.691L434.733 358.628C433.047 360.292 430.493 360.774 427.48 359.315ZM426.816 348.712C424.446 353.604 425.667 355.956 428.842 357.494C432.017 359.033 434.729 358.306 436.314 355.034L437.649 352.28C439.25 348.976 438.139 346.397 434.964 344.859C431.821 343.337 429.187 343.82 426.816 348.712Z" fill="#FAFAFA"/>
<path d="M27.1979 320.431C15.8154 304.467 19.5291 282.299 35.4927 270.916L238.233 126.357C254.196 114.974 276.365 118.688 287.747 134.651C299.13 150.615 295.416 172.784 279.453 184.166L76.7125 328.726C60.7489 340.108 38.5805 336.395 27.1979 320.431Z" fill="#01BD82"/>
<path d="M27.1979 320.431C15.8154 304.467 19.5291 282.299 35.4927 270.916L238.233 126.357C254.196 114.974 276.365 118.688 287.747 134.651C299.13 150.615 295.416 172.784 279.453 184.166L76.7125 328.726C60.7489 340.108 38.5805 336.395 27.1979 320.431Z" stroke="white"/>
<path d="M82.2819 296.335C76.8299 300.222 72.4075 299.042 70.0039 295.671L69.6904 295.232L71.7716 293.748L72.0015 294.07C73.9452 296.796 76.5937 297.472 80.9611 294.358C84.2148 292.038 84.9657 289.867 83.3563 287.61C81.7888 285.411 80.207 285.301 76.7867 286.767L72.8432 288.43C69.3056 289.979 66.1919 290.077 63.9347 286.912C61.9074 284.068 62.4967 279.934 67.1573 276.611C72.2576 272.974 76.7007 274.493 78.9788 277.688L79.2505 278.069L77.1694 279.553L76.9395 279.23C75.0167 276.534 72.3766 275.808 68.5074 278.566C65.2538 280.886 64.415 283.12 65.9407 285.26C67.5291 287.488 69.0734 287.359 72.4267 285.985L76.3912 284.352C80.1673 282.765 83.1887 282.91 85.3832 285.988C87.515 288.978 86.9132 293.032 82.2819 296.335ZM92.6799 288.478L90.5695 289.983L80.2448 275.503L82.15 274.145L84.2819 277.134L84.3698 277.072C83.8399 275.15 84.1101 272.305 87.0999 270.173C89.738 268.292 92.2195 268.424 94.3274 270.016L94.4153 269.953C93.8939 267.982 94.1347 265.157 97.1245 263.025C100.847 260.371 104.261 261.562 106.727 265.021L113.081 273.932L111 275.416L105.001 267.003C102.765 263.867 100.728 263.242 97.7964 265.332C95.0411 267.296 94.6248 269.627 96.9239 272.851L102.88 281.205L100.799 282.689L94.8009 274.276C92.5646 271.14 90.5564 270.494 87.6252 272.584C84.8699 274.549 84.4243 276.9 86.7234 280.124L92.6799 288.478ZM119.24 269.983C116.601 271.864 113.647 271.937 111.912 269.504C110.115 266.983 111.196 264.531 114.049 261.834L118.647 257.494L117.895 256.439C116.077 253.889 114.261 253.636 111.535 255.58C108.896 257.461 108.397 259.365 110.048 261.68L110.362 262.12L108.339 263.562L108.172 263.328C106.019 260.309 106.621 256.254 110.373 253.579C114.242 250.82 117.777 252.057 120.076 255.282L126.534 264.339L124.629 265.698L122.727 263.03L122.56 263.105C122.901 265.382 121.995 268.018 119.24 269.983ZM113.859 267.894C114.925 269.389 116.344 269.394 118.572 267.806C121.063 266.029 122.577 263.005 120.131 259.575L119.776 259.077L115.353 263.292C113.267 265.265 112.752 266.341 113.859 267.894ZM130.696 261.372L128.586 262.877L118.135 248.221L120.041 246.862L121.775 249.295L121.922 249.19C121.43 247.508 121.98 245.303 124.119 243.777C127.109 241.645 129.778 242.97 131.555 245.461L132.14 246.282L130.029 247.787L129.674 247.289C128.065 245.032 126.734 244.654 124.653 246.138C122.396 247.747 122.19 249.442 123.862 251.787L130.696 261.372ZM145.423 250.915C142.756 252.817 140.45 252.87 138.255 249.792L132.152 241.233L129.719 242.968L128.424 241.15L130.886 239.395L128.751 235.346L130.333 234.217L132.967 237.911L137.539 234.65L138.835 236.468L134.263 239.728L140.449 248.404C141.661 250.104 142.724 249.921 144.6 248.583L146.506 247.225L147.718 248.925C147.282 249.368 146.478 250.163 145.423 250.915ZM161.656 239.738C156.087 243.709 149.873 242.127 145.505 236C141.137 229.874 141.666 223.484 147.235 219.513C152.042 216.086 157.323 216.609 160.5 221.064L160.667 221.299L158.439 222.887L158.272 222.653C155.806 219.194 152.663 218.693 148.56 221.619C143.958 224.901 143.816 228.981 147.704 234.433C151.591 239.885 155.495 241.081 160.097 237.8C164.2 234.873 164.751 231.739 162.285 228.281L162.118 228.046L164.345 226.458L164.513 226.692C167.689 231.148 166.463 236.311 161.656 239.738ZM177.756 228.259C173.505 231.29 168.484 230.139 165.349 225.742C162.214 221.345 162.763 216.223 167.013 213.193C171.234 210.183 176.167 211.397 179.302 215.793C182.437 220.19 181.976 225.249 177.756 228.259ZM176.418 226.383C179.906 223.896 179.821 220.862 177.25 217.256C174.679 213.651 171.859 212.611 168.371 215.098C164.825 217.627 164.86 220.653 167.43 224.258C170.001 227.863 172.871 228.912 176.418 226.383ZM187.951 220.547L185.841 222.052L175.516 207.572L177.421 206.213L179.553 209.203L179.641 209.14C179.111 207.219 179.499 204.29 182.489 202.158C186.211 199.504 189.625 200.695 192.112 204.183L198.445 213.065L196.364 214.549L190.365 206.136C188.129 203 186.121 202.354 183.16 204.465C180.288 206.513 179.696 208.969 181.995 212.193L187.951 220.547ZM205.684 207.947C203.016 209.849 200.711 209.902 198.516 206.824L192.413 198.265L189.98 200L188.684 198.182L191.147 196.427L189.012 192.378L190.594 191.25L193.228 194.943L197.8 191.682L199.096 193.5L194.524 196.76L200.71 205.436C201.922 207.137 202.985 206.953 204.861 205.616L206.767 204.257L207.979 205.957C207.543 206.4 206.739 207.195 205.684 207.947ZM211.168 203.993L209.058 205.497L198.608 190.841L200.513 189.483L202.248 191.916L202.394 191.811C201.902 190.129 202.452 187.924 204.592 186.398C207.582 184.266 210.25 185.591 212.027 188.082L212.612 188.903L210.502 190.408L210.146 189.909C208.537 187.652 207.207 187.275 205.125 188.759C202.868 190.368 202.662 192.063 204.334 194.408L211.168 203.993ZM224.017 195.273C221.379 197.154 218.424 197.227 216.689 194.794C214.892 192.274 215.974 189.822 218.826 187.125L223.424 182.785L222.672 181.73C220.854 179.18 219.038 178.927 216.312 180.871C213.674 182.752 213.174 184.656 214.825 186.971L215.139 187.411L213.116 188.853L212.949 188.619C210.796 185.599 211.398 181.545 215.15 178.87C219.019 176.111 222.554 177.348 224.853 180.573L231.311 189.63L229.406 190.988L227.504 188.321L227.337 188.396C227.678 190.673 226.772 193.309 224.017 195.273ZM218.637 193.185C219.703 194.68 221.121 194.685 223.349 193.097C225.84 191.32 227.354 188.296 224.908 184.866L224.553 184.368L220.13 188.583C218.045 190.556 217.529 191.631 218.637 193.185ZM239.808 184.058C235.528 187.109 230.713 185.812 227.578 181.415C224.422 176.989 224.765 172.014 229.044 168.962C232.738 166.329 236.922 166.927 239.347 170.327L239.493 170.532L237.412 172.016L237.286 171.84C235.489 169.319 233.158 168.903 230.315 170.93C227.003 173.292 227.109 176.355 229.659 179.932C232.188 183.478 235.049 184.577 238.362 182.215C241.205 180.188 241.571 177.849 239.773 175.328L239.648 175.152L241.729 173.668L241.875 173.874C244.3 177.274 243.501 181.425 239.808 184.058ZM252.461 174.594C249.794 176.495 247.488 176.548 245.294 173.47L239.191 164.911L236.758 166.646L235.462 164.829L237.924 163.073L235.789 159.024L237.372 157.896L240.005 161.589L244.578 158.329L245.874 160.146L241.301 163.406L247.488 172.083C248.7 173.783 249.763 173.599 251.639 172.262L253.544 170.903L254.756 172.603C254.321 173.047 253.517 173.841 252.461 174.594Z" fill="#FAFAFA"/>
<path d="M8.14534 248.343C-4.24895 233.151 -1.98137 210.788 13.2101 198.394L81.3955 142.764C96.587 130.369 118.95 132.637 131.344 147.828C143.738 163.02 141.471 185.383 126.279 197.777L58.0938 253.407C42.9023 265.802 20.5396 263.534 8.14534 248.343Z" fill="#D8D8D8"/>
<path d="M8.14534 248.343C-4.24895 233.151 -1.98137 210.788 13.2101 198.394L81.3955 142.764C96.587 130.369 118.95 132.637 131.344 147.828C143.738 163.02 141.471 185.383 126.279 197.777L58.0938 253.407C42.9023 265.802 20.5396 263.534 8.14534 248.343Z" stroke="white"/>
<path d="M60.5966 221.036L54.2926 226.179L39.0447 207.49L45.3488 202.347C50.9834 197.75 57.4845 198.486 62.1498 204.204C66.8152 209.922 66.2312 216.439 60.5966 221.036ZM46.8281 204.16L42.5045 207.687L54.7938 222.75L59.1173 219.223C64.0825 215.172 64.1997 210.988 60.0578 205.911C55.9158 200.834 51.7932 200.109 46.8281 204.16ZM77.3457 207.835C73.1058 211.295 68.4671 210.108 65.0534 205.924C61.6397 201.74 61.6872 196.729 65.6203 193.521C68.9397 190.812 73.3118 190.59 76.6345 194.663C77.1579 195.305 77.6028 195.964 77.8377 196.423L67.4054 204.934C69.9697 207.906 72.6256 208.713 75.9171 206.027C78.7065 203.752 78.7982 201.586 77.4327 199.912L77.2962 199.745L79.2766 198.129L79.4359 198.324C81.5979 200.974 80.8604 204.968 77.3457 207.835ZM66.9755 195.295C63.9071 197.799 64.1135 200.558 66.222 203.483L74.897 196.406C72.3459 193.051 69.6812 193.088 66.9755 195.295ZM86.9205 199.559L84.94 201.175L69.6922 182.486L82.1887 172.29L83.668 174.103L73.152 182.683L78.9552 189.796L89.0529 181.558L90.5549 183.399L80.4573 191.637L86.9205 199.559ZM87.6818 172.919L85.7013 174.535L83.1979 171.467L85.1784 169.851L87.6818 172.919ZM100.426 188.54L98.4458 190.156L87.0668 176.209L89.0473 174.593L100.426 188.54Z" fill="#818181"/>
<path d="M105.976 115.722C101.696 96.589 113.737 77.6086 132.87 73.3284L248.999 47.349C268.132 43.0688 287.113 55.1094 291.393 74.2426C295.673 93.3758 283.633 112.356 264.5 116.636L148.37 142.616C129.237 146.896 110.256 134.855 105.976 115.722Z" fill="#BBBBBB"/>
<path d="M105.976 115.722C101.696 96.589 113.737 77.6086 132.87 73.3284L248.999 47.349C268.132 43.0688 287.113 55.1094 291.393 74.2426C295.673 93.3758 283.633 112.356 264.5 116.636L148.37 142.616C129.237 146.896 110.256 134.855 105.976 115.722Z" stroke="white"/>
<path d="M163.917 115.426C159.034 116.518 155.5 113.583 154.274 108.102C153.048 102.622 154.854 98.4921 159.597 97.4311C162.934 96.6844 165.47 97.9616 166.632 99.6937L164.51 90.2081L167.04 89.6423L172.305 113.18L170.057 113.683L169.31 110.346L169.17 110.377C168.884 112.728 167.185 114.695 163.917 115.426ZM156.803 107.537C157.99 112.841 160.409 113.924 163.852 113.153C167.295 112.383 168.967 110.128 168.173 106.579L167.505 103.593C166.703 100.01 164.229 98.6818 160.787 99.452C157.379 100.214 155.617 102.232 156.803 107.537ZM175.987 112.357L173.353 112.946L177.608 87.2781L181.191 86.4765L195.977 107.885L193.272 108.49L188.886 102.241L177.258 104.842L175.987 112.357ZM179.225 93.1876L177.66 102.354L187.427 100.169L182.105 92.5432L179.969 89.2584L179.793 89.2977L179.225 93.1876ZM200.581 113.274L198.051 113.84L192.801 90.3717L195.085 89.8609L195.839 93.2335L195.945 93.21C196.223 90.8238 197.957 88.8494 201.225 88.1185C206.108 87.026 209.607 89.9692 210.841 95.4848C212.059 100.93 210.288 105.052 205.545 106.113C202.208 106.86 199.672 105.583 198.475 103.859L200.581 113.274ZM197.61 99.9941C198.404 103.542 200.913 104.863 204.355 104.092C207.728 103.338 209.49 101.32 208.311 96.0507C207.117 90.7107 204.698 89.6286 201.29 90.391C197.847 91.1612 196.14 93.4244 196.942 97.0079L197.61 99.9941ZM218.32 109.305L215.79 109.871L210.54 86.4034L212.824 85.8926L213.578 89.2652L213.684 89.2416C213.961 86.8554 215.696 84.8811 218.963 84.1502C223.847 83.0577 227.346 86.0008 228.579 91.5165C229.798 96.9619 228.027 101.084 223.284 102.145C219.947 102.892 217.411 101.614 216.213 99.8902L218.32 109.305ZM215.349 96.0257C216.143 99.574 218.651 100.894 222.094 100.124C225.467 99.3695 227.229 97.3521 226.05 92.0824C224.855 86.7424 222.437 85.6603 219.029 86.4226C215.586 87.1928 213.879 89.4561 214.681 93.0395L215.349 96.0257ZM239.438 98.5312C234.695 99.5922 231.647 98.1713 230.743 94.1312L230.728 94.0609L233.187 93.5107L233.281 93.9323C233.816 96.3213 235.059 97.2606 238.993 96.3803C242.226 95.6573 242.864 94.5552 242.471 92.7986C242.078 91.0421 240.848 90.6533 238.103 90.7509L235.112 90.9035C232.184 91.0053 229.855 90.1613 229.172 87.1048C228.504 84.1186 230.585 81.5503 234.695 80.6307C238.665 79.7426 242.037 81.1279 242.909 85.0276L242.949 85.2032L240.525 85.7455L240.462 85.4645C239.998 83.3917 238.836 81.9915 235.112 82.8246C231.951 83.5319 231.195 84.7708 231.588 86.5274C231.981 88.284 232.993 88.6847 235.702 88.595L238.779 88.4969C241.926 88.3831 244.227 89.2702 244.872 92.1509C245.564 95.2425 243.443 97.6352 239.438 98.5312Z" fill="#FAFAFA"/>
</g>
<defs>
<clipPath id="clip0_2002_608">
<rect width="372" height="395" rx="20" fill="white"/>
</clipPath>
</defs>
</svg>
