<svg width="389" height="31" viewBox="0 0 389 31" fill="none" xmlns="http://www.w3.org/2000/svg">
<path fill-rule="evenodd" clip-rule="evenodd" d="M22.3968 43.9317C34.2333 43.9317 43.8287 34.3363 43.8287 22.4998C43.8287 10.6633 34.2333 1.06787 22.3968 1.06787C10.5602 1.06787 0.964844 10.6633 0.964844 22.4998C0.964844 34.3363 10.5602 43.9317 22.3968 43.9317ZM26.6215 9.88171L15.4458 8.30767C14.97 8.24066 14.532 8.57771 14.475 9.0548L12.7521 23.464C12.6693 24.1566 13.4043 24.6529 14.0158 24.3173L24.5028 18.5613C24.6904 18.4583 24.8328 18.2888 24.9018 18.0862L27.3134 11.0071C27.4868 10.4979 27.154 9.95673 26.6215 9.88171ZM33.5935 23.9647L29.5701 12.1246C29.4355 11.7284 28.8711 11.7402 28.7531 12.1416L26.5688 19.5683C26.5447 19.6503 26.5456 19.7375 26.5714 19.819L28.946 27.2987C29.037 27.5855 29.3874 27.6917 29.6223 27.5038L33.4554 24.4373C33.5963 24.3245 33.6515 24.1356 33.5935 23.9647ZM14.3313 26.6668L24.2405 21.2648C24.7127 21.0074 25.3026 21.2434 25.4671 21.7554L27.7535 28.876C27.8189 29.0798 27.8058 29.3007 27.7166 29.4953L22.7319 40.3701C22.4413 41.0042 21.5553 41.0442 21.2087 40.4389L13.9977 27.8455C13.7589 27.4285 13.9094 26.8968 14.3313 26.6668Z" fill="#C4C4C4"/>
<path d="M62.161 44C60.307 44 58.8238 43.4438 57.7114 42.3314C56.6402 41.219 56.1046 39.7358 56.1046 37.8818V18.9093H47.6998V13.5327H56.1046V3.45935H62.47V13.5327H71.5546V18.9093H62.47V36.7694C62.47 38.0054 63.0468 38.6234 64.2004 38.6234H70.5658V44H62.161ZM75.3248 44V0.740163H81.6902V17.8587H82.679C83.091 17.0759 83.6678 16.3137 84.4094 15.5721C85.1922 14.8305 86.2016 14.2331 87.4376 13.7799C88.7148 13.2855 90.3216 13.0383 92.258 13.0383C94.5651 13.0383 96.6045 13.5533 98.3761 14.5833C100.189 15.6133 101.61 17.0759 102.64 18.9711C103.67 20.8251 104.185 23.0705 104.185 25.7073V44H97.8199V26.2017C97.8199 23.5649 97.1607 21.6285 95.8423 20.3925C94.5239 19.1153 92.7112 18.4767 90.404 18.4767C87.7672 18.4767 85.6454 19.3419 84.0386 21.0723C82.473 22.8027 81.6902 25.3159 81.6902 28.6119V44H75.3248ZM109.638 44V13.5327H116.004V44H109.638ZM112.852 9.39213C111.616 9.39213 110.565 9.00073 109.7 8.21793C108.876 7.39394 108.464 6.34334 108.464 5.06615C108.464 3.78895 108.876 2.75896 109.7 1.97616C110.565 1.15216 111.616 0.740163 112.852 0.740163C114.129 0.740163 115.18 1.15216 116.004 1.97616C116.828 2.75896 117.24 3.78895 117.24 5.06615C117.24 6.34334 116.828 7.39394 116.004 8.21793C115.18 9.00073 114.129 9.39213 112.852 9.39213ZM121.742 44V13.5327H127.984V17.1171H128.973C129.467 15.8399 130.25 14.9129 131.321 14.3361C132.434 13.7181 133.793 13.4091 135.4 13.4091H139.046V19.1565H135.153C133.093 19.1565 131.404 19.7333 130.085 20.8869C128.767 21.9993 128.108 23.7297 128.108 26.0781V44H121.742ZM153.454 44.8652C150.941 44.8652 148.613 44.2472 146.471 43.0112C144.328 41.7752 142.598 40.0036 141.28 37.6964C140.002 35.348 139.364 32.5258 139.364 29.2299V28.3029C139.364 25.0481 140.002 22.2465 141.28 19.8981C142.557 17.5497 144.267 15.7575 146.409 14.5215C148.551 13.2855 150.9 12.6675 153.454 12.6675C155.432 12.6675 157.08 12.9147 158.398 13.4091C159.758 13.9035 160.87 14.5421 161.735 15.3249C162.601 16.0665 163.26 16.8493 163.713 17.6733H164.702V0.740163H171.067V44H164.825V39.674H163.837C163.054 40.9924 161.859 42.1872 160.252 43.2584C158.687 44.3296 156.421 44.8652 153.454 44.8652ZM155.246 39.3032C158.007 39.3032 160.273 38.4174 162.044 36.6458C163.857 34.8742 164.764 32.3404 164.764 29.0445V28.4883C164.764 25.2335 163.878 22.7203 162.106 20.9487C160.335 19.1771 158.048 18.2913 155.246 18.2913C152.527 18.2913 150.261 19.1771 148.448 20.9487C146.677 22.7203 145.791 25.2335 145.791 28.4883V29.0445C145.791 32.3404 146.677 34.8742 148.448 36.6458C150.261 38.4174 152.527 39.3032 155.246 39.3032ZM176.73 44V13.5327H183.095V44H176.73ZM179.943 9.39213C178.707 9.39213 177.657 9.00073 176.791 8.21793C175.967 7.39394 175.555 6.34334 175.555 5.06615C175.555 3.78895 175.967 2.75896 176.791 1.97616C177.657 1.15216 178.707 0.740163 179.943 0.740163C181.22 0.740163 182.271 1.15216 183.095 1.97616C183.919 2.75896 184.331 3.78895 184.331 5.06615C184.331 6.34334 183.919 7.39394 183.095 8.21793C182.271 9.00073 181.22 9.39213 179.943 9.39213ZM188.834 44V13.5327H195.075V18.1059H196.064C196.641 16.8699 197.671 15.7163 199.154 14.6451C200.637 13.5739 202.842 13.0383 205.767 13.0383C208.074 13.0383 210.113 13.5533 211.885 14.5833C213.698 15.6133 215.119 17.0759 216.149 18.9711C217.179 20.8251 217.694 23.0705 217.694 25.7073V44H211.329V26.2017C211.329 23.5649 210.67 21.6285 209.351 20.3925C208.033 19.1153 206.22 18.4767 203.913 18.4767C201.276 18.4767 199.154 19.3419 197.547 21.0723C195.982 22.8027 195.199 25.3159 195.199 28.6119V44H188.834ZM233.735 44C231.881 44 230.398 43.4438 229.285 42.3314C228.214 41.219 227.679 39.7358 227.679 37.8818V18.9093H219.274V13.5327H227.679V3.45935H234.044V13.5327H243.129V18.9093H234.044V36.7694C234.044 38.0054 234.621 38.6234 235.774 38.6234H242.14V44H233.735ZM259.779 44.8652C256.689 44.8652 253.991 44.2266 251.683 42.9494C249.376 41.631 247.563 39.7976 246.245 37.4492C244.968 35.0596 244.329 32.2992 244.329 29.1681V28.4265C244.329 25.2541 244.968 22.4937 246.245 20.1453C247.522 17.7557 249.294 15.9223 251.56 14.6451C253.867 13.3267 256.524 12.6675 259.532 12.6675C262.457 12.6675 265.012 13.3267 267.195 14.6451C269.42 15.9223 271.15 17.7145 272.386 20.0217C273.622 22.3289 274.24 25.0275 274.24 28.1175V30.5277H250.818C250.901 33.2056 251.786 35.348 253.476 36.9548C255.206 38.5204 257.348 39.3032 259.903 39.3032C262.292 39.3032 264.085 38.7676 265.279 37.6964C266.515 36.6252 267.463 35.3892 268.122 33.9884L273.375 36.7076C272.798 37.8612 271.954 39.0766 270.841 40.3538C269.77 41.631 268.349 42.7022 266.577 43.5674C264.806 44.4326 262.54 44.8652 259.779 44.8652ZM250.88 25.6455H267.751C267.587 23.3383 266.763 21.5461 265.279 20.2689C263.796 18.9505 261.86 18.2913 259.47 18.2913C257.081 18.2913 255.124 18.9505 253.599 20.2689C252.116 21.5461 251.21 23.3383 250.88 25.6455ZM278.195 44V13.5327H284.436V17.1171H285.425C285.92 15.8399 286.702 14.9129 287.774 14.3361C288.886 13.7181 290.246 13.4091 291.852 13.4091H295.499V19.1565H291.605C289.545 19.1565 287.856 19.7333 286.538 20.8869C285.219 21.9993 284.56 23.7297 284.56 26.0781V44H278.195ZM298.386 44V13.5327H304.628V18.1059H305.616C306.193 16.8699 307.223 15.7163 308.706 14.6451C310.19 13.5739 312.394 13.0383 315.319 13.0383C317.626 13.0383 319.665 13.5533 321.437 14.5833C323.25 15.6133 324.671 17.0759 325.701 18.9711C326.731 20.8251 327.246 23.0705 327.246 25.7073V44H320.881V26.2017C320.881 23.5649 320.222 21.6285 318.903 20.3925C317.585 19.1153 315.772 18.4767 313.465 18.4767C310.828 18.4767 308.706 19.3419 307.1 21.0723C305.534 22.8027 304.751 25.3159 304.751 28.6119V44H298.386ZM346.666 44.8652C343.576 44.8652 340.877 44.2266 338.57 42.9494C336.263 41.631 334.45 39.7976 333.132 37.4492C331.855 35.0596 331.216 32.2992 331.216 29.1681V28.4265C331.216 25.2541 331.855 22.4937 333.132 20.1453C334.409 17.7557 336.18 15.9223 338.446 14.6451C340.754 13.3267 343.411 12.6675 346.419 12.6675C349.344 12.6675 351.898 13.3267 354.082 14.6451C356.307 15.9223 358.037 17.7145 359.273 20.0217C360.509 22.3289 361.127 25.0275 361.127 28.1175V30.5277H337.705C337.787 33.2056 338.673 35.348 340.362 36.9548C342.093 38.5204 344.235 39.3032 346.789 39.3032C349.179 39.3032 350.971 38.7676 352.166 37.6964C353.402 36.6252 354.35 35.3892 355.009 33.9884L360.262 36.7076C359.685 37.8612 358.84 39.0766 357.728 40.3538C356.657 41.631 355.235 42.7022 353.464 43.5674C351.692 44.4326 349.426 44.8652 346.666 44.8652ZM337.767 25.6455H354.638C354.473 23.3383 353.649 21.5461 352.166 20.2689C350.683 18.9505 348.746 18.2913 346.357 18.2913C343.967 18.2913 342.01 18.9505 340.486 20.2689C339.003 21.5461 338.096 23.3383 337.767 25.6455ZM375.368 44C373.514 44 372.03 43.4438 370.918 42.3314C369.847 41.219 369.311 39.7358 369.311 37.8818V18.9093H360.906V13.5327H369.311V3.45935H375.676V13.5327H384.761V18.9093H375.676V36.7694C375.676 38.0054 376.253 38.6234 377.407 38.6234H383.772V44H375.368Z" fill="#C4C4C4"/>
</svg>
