<svg width="1200" height="88" viewBox="0 0 1200 88" fill="none" xmlns="http://www.w3.org/2000/svg">
<path fill-rule="evenodd" clip-rule="evenodd" d="M66.5547 134.5C103.282 134.5 133.055 104.727 133.055 68C133.055 31.2731 103.282 1.5 66.5547 1.5C29.8278 1.5 0.0546875 31.2731 0.0546875 68C0.0546875 104.727 29.8278 134.5 66.5547 134.5ZM79.6657 28.8487L44.9892 23.9647C43.5129 23.7568 42.154 24.8026 41.9771 26.2829L36.6314 70.9924C36.3744 73.1415 38.655 74.6815 40.5524 73.64L73.0918 55.7801C73.6741 55.4605 74.1157 54.9347 74.3299 54.306L81.8126 32.3405C82.3508 30.7608 81.3182 29.0814 79.6657 28.8487ZM101.299 72.5459L88.815 35.8082C88.3973 34.5788 86.6461 34.6152 86.2798 35.8608L79.5022 58.9047C79.4274 59.159 79.4303 59.4298 79.5105 59.6824L86.8783 82.8911C87.1607 83.7808 88.2479 84.1103 88.9768 83.5272L100.87 74.0124C101.308 73.6625 101.479 73.0762 101.299 72.5459ZM41.5312 80.9302L72.278 64.1688C73.7432 63.37 75.5736 64.1021 76.0838 65.6911L83.1782 87.785C83.3813 88.4174 83.3404 89.1029 83.0637 89.7066L67.5972 123.449C66.6953 125.417 63.9462 125.541 62.8707 123.663L40.496 84.5875C39.7552 83.2937 40.2222 81.6438 41.5312 80.9302Z" fill="#C4C4C4"/>
<path d="M189.939 135C184.186 135 179.584 133.274 176.132 129.823C172.809 126.371 171.147 121.769 171.147 116.016V57.1474H145.068V40.4647H171.147V9.20861H190.897V40.4647H219.086V57.1474H190.897V112.565C190.897 116.4 192.687 118.317 196.267 118.317H216.017V135H189.939ZM230.784 135V0.771381H250.535V53.8876H253.603C254.881 51.4587 256.671 49.0937 258.972 46.7926C261.401 44.4916 264.533 42.6379 268.368 41.2317C272.331 39.6977 277.317 38.9307 283.325 38.9307C290.484 38.9307 296.812 40.5286 302.309 43.7245C307.934 46.9205 312.344 51.4587 315.54 57.3392C318.736 63.0918 320.334 70.0589 320.334 78.2405V135H300.583V79.7745C300.583 71.593 298.538 65.5846 294.447 61.7495C290.356 57.7866 284.731 55.8051 277.572 55.8051C269.391 55.8051 262.807 58.4897 257.822 63.8588C252.964 69.228 250.535 77.026 250.535 87.253V135H230.784ZM337.253 135V40.4647H357.004V135H337.253ZM347.224 27.6171C343.389 27.6171 340.129 26.4027 337.445 23.9738C334.888 21.417 333.61 18.1572 333.61 14.1942C333.61 10.2313 334.888 7.03539 337.445 4.60649C340.129 2.04975 343.389 0.771381 347.224 0.771381C351.187 0.771381 354.447 2.04975 357.004 4.60649C359.561 7.03539 360.839 10.2313 360.839 14.1942C360.839 18.1572 359.561 21.417 357.004 23.9738C354.447 26.4027 351.187 27.6171 347.224 27.6171ZM374.81 135V40.4647H394.177V51.5865H397.246C398.78 47.6236 401.208 44.7472 404.532 42.9575C407.984 41.04 412.202 40.0812 417.188 40.0812H428.502V57.9144H416.421C410.029 57.9144 404.788 59.7041 400.697 63.2836C396.606 66.7352 394.561 72.1043 394.561 79.391V135H374.81ZM473.208 137.685C465.409 137.685 458.187 135.767 451.539 131.932C444.892 128.097 439.523 122.6 435.432 115.441C431.469 108.154 429.487 99.3975 429.487 89.1705V86.2942C429.487 76.1951 431.469 67.5022 435.432 60.2155C439.395 52.9288 444.7 47.3679 451.347 43.5328C457.995 39.6977 465.282 37.7801 473.208 37.7801C479.344 37.7801 484.457 38.5471 488.548 40.0812C492.767 41.6152 496.218 43.5967 498.903 46.0256C501.587 48.3267 503.633 50.7556 505.039 53.3123H508.107V0.771381H527.858V135H508.49V121.577H505.422C502.993 125.668 499.286 129.375 494.301 132.699C489.443 136.023 482.412 137.685 473.208 137.685ZM478.768 120.427C487.333 120.427 494.365 117.678 499.861 112.181C505.486 106.684 508.299 98.8222 508.299 88.5952V86.8695C508.299 76.7703 505.55 68.9723 500.053 63.4753C494.556 57.9783 487.461 55.2299 478.768 55.2299C470.331 55.2299 463.3 57.9783 457.675 63.4753C452.178 68.9723 449.43 76.7703 449.43 86.8695V88.5952C449.43 98.8222 452.178 106.684 457.675 112.181C463.3 117.678 470.331 120.427 478.768 120.427ZM545.427 135V40.4647H565.178V135H545.427ZM555.399 27.6171C551.564 27.6171 548.304 26.4027 545.619 23.9738C543.062 21.417 541.784 18.1572 541.784 14.1942C541.784 10.2313 543.062 7.03539 545.619 4.60649C548.304 2.04975 551.564 0.771381 555.399 0.771381C559.362 0.771381 562.621 2.04975 565.178 4.60649C567.735 7.03539 569.013 10.2313 569.013 14.1942C569.013 18.1572 567.735 21.417 565.178 23.9738C562.621 26.4027 559.362 27.6171 555.399 27.6171ZM582.984 135V40.4647H602.352V54.6546H605.42C607.209 50.8195 610.405 47.2401 615.007 43.9163C619.61 40.5925 626.449 38.9307 635.525 38.9307C642.684 38.9307 649.012 40.5286 654.509 43.7245C660.134 46.9205 664.544 51.4587 667.74 57.3392C670.936 63.0918 672.534 70.0589 672.534 78.2405V135H652.783V79.7745C652.783 71.593 650.738 65.5846 646.647 61.7495C642.556 57.7866 636.931 55.8051 629.773 55.8051C621.591 55.8051 615.007 58.4897 610.022 63.8588C605.164 69.228 602.735 77.026 602.735 87.253V135H582.984ZM722.306 135C716.554 135 711.952 133.274 708.5 129.823C705.176 126.371 703.514 121.769 703.514 116.016V57.1474H677.436V40.4647H703.514V9.20861H723.265V40.4647H751.453V57.1474H723.265V112.565C723.265 116.4 725.055 118.317 728.634 118.317H748.385V135H722.306ZM803.118 137.685C793.53 137.685 785.157 135.703 777.998 131.74C770.839 127.649 765.214 121.961 761.123 114.674C757.161 107.259 755.179 98.6944 755.179 88.9788V86.6777C755.179 76.8343 757.161 68.2692 761.123 60.9825C765.086 53.568 770.583 47.8792 777.614 43.9163C784.773 39.8255 793.019 37.7801 802.351 37.7801C811.427 37.7801 819.353 39.8255 826.128 43.9163C833.032 47.8792 838.401 53.4401 842.236 60.599C846.071 67.7579 847.989 76.1312 847.989 85.7189V93.1974H775.313C775.569 101.507 778.317 108.154 783.559 113.14C788.928 117.998 795.575 120.427 803.501 120.427C810.916 120.427 816.477 118.765 820.184 115.441C824.019 112.117 826.959 108.282 829.005 103.936L845.304 112.373C843.514 115.952 840.894 119.724 837.442 123.686C834.118 127.649 829.708 130.973 824.211 133.658C818.714 136.342 811.683 137.685 803.118 137.685ZM775.505 78.0487H827.854C827.343 70.8899 824.786 65.329 820.184 61.366C815.582 57.2752 809.574 55.2299 802.159 55.2299C794.745 55.2299 788.672 57.2752 783.942 61.366C779.34 65.329 776.528 70.8899 775.505 78.0487ZM860.258 135V40.4647H879.625V51.5865H882.693C884.227 47.6236 886.656 44.7472 889.98 42.9575C893.431 41.04 897.65 40.0812 902.636 40.0812H913.949V57.9144H901.869C895.477 57.9144 890.236 59.7041 886.145 63.2836C882.054 66.7352 880.009 72.1043 880.009 79.391V135H860.258ZM922.908 135V40.4647H942.275V54.6546H945.343C947.133 50.8195 950.329 47.2401 954.931 43.9163C959.533 40.5925 966.372 38.9307 975.449 38.9307C982.608 38.9307 988.936 40.5286 994.433 43.7245C1000.06 46.9205 1004.47 51.4587 1007.66 57.3392C1010.86 63.0918 1012.46 70.0589 1012.46 78.2405V135H992.707V79.7745C992.707 71.593 990.661 65.5846 986.571 61.7495C982.48 57.7866 976.855 55.8051 969.696 55.8051C961.515 55.8051 954.931 58.4897 949.945 63.8588C945.088 69.228 942.659 77.026 942.659 87.253V135H922.908ZM1072.71 137.685C1063.13 137.685 1054.75 135.703 1047.59 131.74C1040.43 127.649 1034.81 121.961 1030.72 114.674C1026.76 107.259 1024.77 98.6944 1024.77 88.9788V86.6777C1024.77 76.8343 1026.76 68.2692 1030.72 60.9825C1034.68 53.568 1040.18 47.8792 1047.21 43.9163C1054.37 39.8255 1062.61 37.7801 1071.95 37.7801C1081.02 37.7801 1088.95 39.8255 1095.72 43.9163C1102.63 47.8792 1108 53.4401 1111.83 60.599C1115.67 67.7579 1117.58 76.1312 1117.58 85.7189V93.1974H1044.91C1045.16 101.507 1047.91 108.154 1053.15 113.14C1058.52 117.998 1065.17 120.427 1073.1 120.427C1080.51 120.427 1086.07 118.765 1089.78 115.441C1093.61 112.117 1096.56 108.282 1098.6 103.936L1114.9 112.373C1113.11 115.952 1110.49 119.724 1107.04 123.686C1103.71 127.649 1099.3 130.973 1093.81 133.658C1088.31 136.342 1081.28 137.685 1072.71 137.685ZM1045.1 78.0487H1097.45C1096.94 70.8899 1094.38 65.329 1089.78 61.366C1085.18 57.2752 1079.17 55.2299 1071.75 55.2299C1064.34 55.2299 1058.27 57.2752 1053.54 61.366C1048.94 65.329 1046.12 70.8899 1045.1 78.0487ZM1161.77 135C1156.02 135 1151.42 133.274 1147.96 129.823C1144.64 126.371 1142.98 121.769 1142.98 116.016V57.1474H1116.9V40.4647H1142.98V9.20861H1162.73V40.4647H1190.92V57.1474H1162.73V112.565C1162.73 116.4 1164.52 118.317 1168.1 118.317H1187.85V135H1161.77Z" fill="#C4C4C4"/>
</svg>
