<svg width="1440" height="576" viewBox="0 0 1440 576" fill="none" xmlns="http://www.w3.org/2000/svg">
<g clip-path="url(#clip0_359_3980)">
<g clip-path="url(#clip1_359_3980)">
<path d="M-368 1567.31L-368 -592.695M-304 1567.31L-304 -592.695M-240 1567.31V-592.695M-176 1567.31V-592.695M-112 1567.31V-592.695M-48 1567.31V-592.695M16 1567.31V-592.695M80 1567.31V-592.695M144 1567.31V-592.695M208 1567.31V-592.695M272 1567.31V-592.695M336 1567.31V-592.695M400 1567.31V-592.695M464 1567.31V-592.695M528 1567.31V-592.695M592 1567.31V-592.695M656 1567.31V-592.695M720 1567.31V-592.695M784 1567.31V-592.695M848 1567.31V-592.695M912 1567.31V-592.695M976 1567.31V-592.695M1040 1567.31V-592.695M1104 1567.31V-592.695M1168 1567.31V-592.695M1232 1567.31V-592.695M1296 1567.31V-592.695M1360 1567.31V-592.695M1424 1567.31V-592.695M1488 1567.31V-592.695M1552 1567.31V-592.695M1616 1567.31V-592.695M1680 1567.31V-592.695M1744 1567.31V-592.695M1808 1567.31V-592.695M-361 -599.695H1799M-361 -535.695H1799M-361 -471.695H1799M-361 -407.695H1799M-361 -343.695H1799M-361 -279.695H1799M-361 -215.695H1799M-361 -151.695H1799M-361 -87.6948H1799M-361 -23.6948H1799M-361 40.3052H1799M-361 104.305H1799M-361 168.305H1799M-361 232.305H1799M-361 296.305H1799M-361 360.305H1799M-361 424.305H1799M-361 488.305H1799M-361 552.305H1799M-361 616.305H1799M-361 680.305H1799M-361 744.305H1799M-361 808.305H1799M-361 872.305H1799M-361 936.305H1799M-361 1000.31H1799M-361 1064.31H1799M-361 1128.31H1799M-361 1192.31H1799M-361 1256.31H1799M-361 1320.31H1799M-361 1384.31H1799M-361 1448.31H1799M-361 1512.3L1799 1512.31M-361 1576.3L1799 1576.31" stroke="#DDDCDC"/>
</g>
</g>
<rect width="1480" height="433" transform="matrix(1 0 0 -1 0 99)" fill="url(#paint0_linear_359_3980)"/>
<defs>
<linearGradient id="paint0_linear_359_3980" x1="740" y1="-38" x2="740" y2="286.5" gradientUnits="userSpaceOnUse">
<stop stop-color="#EAEAEA" stop-opacity="0"/>
<stop offset="1" stop-color="#EAEAEA"/>
</linearGradient>
<clipPath id="clip0_359_3980">
<rect width="1488" height="1053" fill="white" transform="matrix(1 0 0 -1 -24 1015)"/>
</clipPath>
<clipPath id="clip1_359_3980">
<rect width="2178" height="2178" fill="white" transform="matrix(1 0 0 -1 -369 1577.31)"/>
</clipPath>
</defs>
</svg>
