<svg width="43" height="42" viewBox="0 0 43 42" fill="none" xmlns="http://www.w3.org/2000/svg">
<path d="M18.0877 4.4275L7.55266 11.305C4.17516 13.51 4.17516 18.445 7.55266 20.65L18.0877 27.5275C19.9777 28.77 23.0927 28.77 24.9827 27.5275L35.4652 20.65C38.8252 18.445 38.8252 13.5275 35.4652 11.3225L24.9827 4.445C23.0927 3.185 19.9777 3.185 18.0877 4.4275Z" stroke="#0E1F38" stroke-width="1.5" stroke-linecap="round" stroke-linejoin="round"/>
<path d="M10.3534 22.8899L10.3359 31.0974C10.3359 33.3199 12.0509 35.6999 14.1509 36.3999L19.7334 38.2549C20.6959 38.5699 22.2884 38.5699 23.2684 38.2549L28.8509 36.3999C30.9509 35.6999 32.6659 33.3199 32.6659 31.0974V22.9774" stroke="#0E1F38" stroke-width="1.5" stroke-linecap="round" stroke-linejoin="round"/>
<path d="M37.9492 26.25V15.75" stroke="#0E1F38" stroke-width="1.5" stroke-linecap="round" stroke-linejoin="round"/>
</svg>
