<svg width="16" height="17" viewBox="0 0 16 17" fill="none" xmlns="http://www.w3.org/2000/svg">
<path d="M12.4476 12.9468L13.9276 12.2068V10.3535M9.48089 7.02016L8.00089 7.76016L9.48089 7.02016ZM8.00089 7.76016L6.52088 7.02016L8.00089 7.76016ZM8.00089 7.76016V9.61349V7.76016ZM13.9276 4.7935L12.4476 5.5335L13.9276 4.7935ZM13.9276 4.7935L12.4476 4.0535L13.9276 4.7935ZM13.9276 4.7935V6.64683V4.7935ZM9.48089 2.5735L8.00089 1.8335L6.52088 2.5735H9.48089ZM2.07422 4.7935L3.55422 4.0535L2.07422 4.7935ZM2.07422 4.7935L3.55422 5.5335L2.07422 4.7935ZM2.07422 4.7935V6.64683V4.7935ZM8.00089 15.1668L6.52088 14.4268L8.00089 15.1668ZM8.00089 15.1668L9.48089 14.4268L8.00089 15.1668ZM8.00089 15.1668V13.3135V15.1668ZM3.55422 12.9468L2.07422 12.2068V10.3535L3.55422 12.9468Z" stroke="#01BD82" stroke-width="1.5" stroke-linecap="round" stroke-linejoin="round"/>
</svg>
