<svg width="49" height="49" viewBox="0 0 49 49" fill="none" xmlns="http://www.w3.org/2000/svg">
<circle cx="24.5" cy="24.5" r="24.5" fill="#0E1F38"/>
<path d="M15.8401 28.4771L26.1907 22.8346C26.7305 22.5403 27.4049 22.81 27.5928 23.3954L29.9785 30.8249C30.0533 31.0579 30.0382 31.3104 29.9363 31.5329L24.7287 42.894C24.3964 43.619 23.3836 43.6647 22.9874 42.9727L15.4587 29.8246C15.1858 29.3479 15.3579 28.74 15.8401 28.4771Z" fill="#01BD82"/>
<path d="M36.1603 25.6274L31.9452 13.223C31.7913 12.77 31.1462 12.7834 31.0112 13.2424L28.7337 20.9859C28.7061 21.0795 28.7072 21.1793 28.7367 21.2724L31.2317 29.1314C31.3357 29.4592 31.7363 29.5806 32.0048 29.3658L36.0025 26.1677C36.1636 26.0388 36.2267 25.8228 36.1603 25.6274Z" fill="#FE3C77"/>
<path d="M17.0272 9.08377L28.7007 10.7279C29.3095 10.8137 29.6899 11.4324 29.4916 12.0144L26.9754 19.4006C26.8965 19.6323 26.7338 19.826 26.5193 19.9437L15.5633 25.9572C14.8643 26.3408 14.0241 25.7735 14.1187 24.9817L15.9175 9.93785C15.9827 9.39247 16.4833 9.00717 17.0272 9.08377Z" fill="#FEC726"/>
</svg>
