<svg width="13" height="13" viewBox="0 0 13 13" fill="none" xmlns="http://www.w3.org/2000/svg">
<path d="M8.54592 6.75052C9.95415 6.75052 11.0957 5.60893 11.0957 4.2007C11.0957 2.79248 9.95415 1.65088 8.54592 1.65088C7.13769 1.65088 5.99609 2.79248 5.99609 4.2007C5.99609 5.60893 7.13769 6.75052 8.54592 6.75052Z" stroke="#FEC726" stroke-width="0.745562" stroke-miterlimit="10"/>
<path d="M3.96057 10.3193C4.80605 10.3193 5.49146 9.63394 5.49146 8.78846C5.49146 7.94297 4.80605 7.25757 3.96057 7.25757C3.11508 7.25757 2.42969 7.94297 2.42969 8.78846C2.42969 9.63394 3.11508 10.3193 3.96057 10.3193Z" stroke="#FEC726" stroke-width="0.745562" stroke-miterlimit="10"/>
<path d="M9.05758 11.5917C9.76032 11.5917 10.33 11.022 10.33 10.3193C10.33 9.61656 9.76032 9.04688 9.05758 9.04688C8.35484 9.04688 7.78516 9.61656 7.78516 10.3193C7.78516 11.022 8.35484 11.5917 9.05758 11.5917Z" stroke="#FEC726" stroke-width="0.745562" stroke-miterlimit="10"/>
</svg>
