<svg width="122" height="123" viewBox="0 0 122 123" fill="none" xmlns="http://www.w3.org/2000/svg">
<g clip-path="url(#clip0_279_3270)">
<path d="M94.9753 86.1256C94.9753 86.2313 94.9753 91.9672 94.9753 91.9672H94V92.6011H94.9753V96.5107H113.207V92.9532H111.856V92.1783H113.207V91.0163H113.807V90.4881H113.094V86.1259H94.9753V86.1256Z" fill="#EDEAEA"/>
<path d="M108.365 86.1427V96.4461H113.207V92.8886H111.856V92.1788L113.207 92.2027V91.0403L113.819 91.041L113.807 90.4405L113.094 90.4229V86.1256L108.365 86.1427Z" fill="#D0CBCB"/>
<path d="M108.711 92.5174C108.711 92.5533 105.411 92.5821 101.343 92.5821C97.2728 92.5821 93.9746 92.553 93.9746 92.5174C93.9746 92.4816 97.273 92.4528 101.343 92.4528C105.411 92.4528 108.711 92.4816 108.711 92.5174Z" fill="#D0CBCB"/>
<path d="M108.711 91.924C108.711 91.9599 105.411 91.9889 101.343 91.9889C97.2728 91.9889 93.9746 91.9599 93.9746 91.924C93.9746 91.8884 97.273 91.8594 101.343 91.8594C105.411 91.8594 108.711 91.8884 108.711 91.924Z" fill="#D0CBCB"/>
<path d="M109.656 90.327C109.656 90.3629 106.357 90.3916 102.288 90.3916C98.2181 90.3916 94.9199 90.3626 94.9199 90.327C94.9199 90.2914 98.2183 90.2623 102.288 90.2623C106.357 90.2623 109.656 90.2914 109.656 90.327Z" fill="#D0CBCB"/>
<path d="M109.748 94.6788C109.748 94.7147 106.448 94.7435 102.38 94.7435C98.3099 94.7435 95.0117 94.7144 95.0117 94.6788C95.0117 94.6432 98.3101 94.6141 102.38 94.6141C106.449 94.6141 109.748 94.6432 109.748 94.6788Z" fill="#D0CBCB"/>
<path d="M96.3503 96.2223C96.3503 96.3279 96.3503 102.064 96.3503 102.064H95.375V102.698H96.3503V106.607H114.582V103.05H113.231V102.275H114.582V101.113H115.182V100.584H114.469V96.222H96.3503V96.2223Z" fill="#EDEAEA"/>
<path d="M109.74 96.2394V106.543H114.582V102.985H113.231V102.275L114.582 102.299V101.137L115.194 101.138L115.182 100.537L114.469 100.52V96.2223L109.74 96.2394Z" fill="#D0CBCB"/>
<path d="M110.085 102.614C110.085 102.65 106.786 102.679 102.718 102.679C98.6478 102.679 95.3496 102.65 95.3496 102.614C95.3496 102.578 98.648 102.549 102.718 102.549C106.786 102.549 110.085 102.578 110.085 102.614Z" fill="#D0CBCB"/>
<path d="M110.085 102.021C110.085 102.057 106.786 102.086 102.718 102.086C98.6478 102.086 95.3496 102.057 95.3496 102.021C95.3496 101.985 98.648 101.956 102.718 101.956C106.786 101.956 110.085 101.985 110.085 102.021Z" fill="#D0CBCB"/>
<path d="M111.031 100.424C111.031 100.46 107.732 100.488 103.663 100.488C99.5931 100.488 96.2949 100.459 96.2949 100.424C96.2949 100.388 99.5933 100.359 103.663 100.359C107.732 100.359 111.031 100.388 111.031 100.424Z" fill="#D0CBCB"/>
<path d="M111.123 104.775C111.123 104.811 107.823 104.84 103.755 104.84C99.6849 104.84 96.3867 104.811 96.3867 104.775C96.3867 104.74 99.6851 104.711 103.755 104.711C107.823 104.711 111.123 104.74 111.123 104.775Z" fill="#D0CBCB"/>
<path d="M94.7526 106.183C94.7526 106.289 94.7526 112.024 94.7526 112.024H93.7773V112.658H94.7526V116.568H112.984V113.01H111.634V112.236H112.984V111.073H113.584V110.545H112.872V106.183H94.7526V106.183Z" fill="#EDEAEA"/>
<path d="M108.143 106.2V116.503H112.984V112.946H111.633V112.236L112.984 112.26V111.098L113.596 111.098L113.584 110.498L112.872 110.48V106.183L108.143 106.2Z" fill="#D0CBCB"/>
<path d="M108.488 112.575C108.488 112.611 105.189 112.639 101.12 112.639C97.0501 112.639 93.752 112.61 93.752 112.575C93.752 112.539 97.0503 112.51 101.12 112.51C105.189 112.51 108.488 112.539 108.488 112.575Z" fill="#D0CBCB"/>
<path d="M108.488 111.981C108.488 112.017 105.189 112.046 101.12 112.046C97.0501 112.046 93.752 112.017 93.752 111.981C93.752 111.946 97.0503 111.917 101.12 111.917C105.189 111.917 108.488 111.945 108.488 111.981Z" fill="#D0CBCB"/>
<path d="M109.435 110.384C109.435 110.42 106.136 110.449 102.068 110.449C97.9974 110.449 94.6992 110.42 94.6992 110.384C94.6992 110.349 97.9976 110.32 102.068 110.32C106.136 110.32 109.435 110.348 109.435 110.384Z" fill="#D0CBCB"/>
<path d="M109.525 114.736C109.525 114.772 106.226 114.801 102.157 114.801C98.0872 114.801 94.7891 114.772 94.7891 114.736C94.7891 114.7 98.0875 114.671 102.157 114.671C106.226 114.671 109.525 114.7 109.525 114.736Z" fill="#D0CBCB"/>
<path d="M10.2155 86.1256C10.2155 86.2313 10.2155 91.9672 10.2155 91.9672H9.24023V92.6011H10.2155V96.5107H28.4469V92.9532H27.0964V92.1783H28.4469V91.0163H29.0472V90.4881H28.3345V86.1259H10.2155V86.1256Z" fill="#EDEAEA"/>
<path d="M23.6055 86.1427V96.4461H28.4469V92.8886H27.0966V92.1788L28.4469 92.2027V91.0403L29.0589 91.041L29.0472 90.4405L28.3344 90.4229V86.1256L23.6055 86.1427Z" fill="#D0CBCB"/>
<path d="M23.9507 92.5174C23.9507 92.5533 20.6516 92.5821 16.5832 92.5821C12.513 92.5821 9.21484 92.553 9.21484 92.5174C9.21484 92.4816 12.5132 92.4528 16.5832 92.4528C20.6516 92.4528 23.9507 92.4816 23.9507 92.5174Z" fill="#D0CBCB"/>
<path d="M23.9507 91.924C23.9507 91.9599 20.6516 91.9889 16.5832 91.9889C12.513 91.9889 9.21484 91.9599 9.21484 91.924C9.21484 91.8884 12.5132 91.8594 16.5832 91.8594C20.6516 91.8594 23.9507 91.8884 23.9507 91.924Z" fill="#D0CBCB"/>
<path d="M24.898 90.327C24.898 90.3629 21.5989 90.3916 17.5304 90.3916C13.4603 90.3916 10.1621 90.3626 10.1621 90.327C10.1621 90.2914 13.4605 90.2623 17.5304 90.2623C21.5989 90.2623 24.898 90.2914 24.898 90.327Z" fill="#D0CBCB"/>
<path d="M24.9878 94.6788C24.9878 94.7147 21.6887 94.7435 17.6203 94.7435C13.5501 94.7435 10.252 94.7144 10.252 94.6788C10.252 94.6432 13.5503 94.6141 17.6203 94.6141C21.6887 94.6141 24.9878 94.6432 24.9878 94.6788Z" fill="#D0CBCB"/>
<path d="M98.071 77.1656C98.071 77.2713 98.071 83.0072 98.071 83.0072H97.0957V83.6412H98.071V87.551H116.302V83.9935H114.952V83.2186H116.302V82.0561H116.903V81.5279H116.19V77.1656H98.071Z" fill="#EDEAEA"/>
<path d="M111.461 77.1825V87.4859H116.302V83.9284H114.952V83.2186L116.302 83.2425V82.0803L116.914 82.081L116.903 81.4803L116.19 81.4627V77.1656L111.461 77.1825Z" fill="#D0CBCB"/>
<path d="M111.806 83.5572C111.806 83.5931 108.507 83.6219 104.439 83.6219C100.368 83.6219 97.0703 83.5928 97.0703 83.5572C97.0703 83.5216 100.369 83.4926 104.439 83.4926C108.507 83.4926 111.806 83.5216 111.806 83.5572Z" fill="#D0CBCB"/>
<path d="M111.806 82.9638C111.806 82.9997 108.507 83.0285 104.439 83.0285C100.368 83.0285 97.0703 82.9995 97.0703 82.9638C97.0703 82.9282 100.369 82.8992 104.439 82.8992C108.507 82.8992 111.806 82.9282 111.806 82.9638Z" fill="#D0CBCB"/>
<path d="M112.752 81.3668C112.752 81.4026 109.452 81.4314 105.384 81.4314C101.314 81.4314 98.0156 81.4024 98.0156 81.3668C98.0156 81.3312 101.314 81.3021 105.384 81.3021C109.453 81.3021 112.752 81.3312 112.752 81.3668Z" fill="#D0CBCB"/>
<path d="M112.843 85.7188C112.843 85.7547 109.544 85.7837 105.476 85.7837C101.406 85.7837 98.1074 85.7547 98.1074 85.7188C98.1074 85.6832 101.406 85.6542 105.476 85.6542C109.544 85.6542 112.843 85.6832 112.843 85.7188Z" fill="#D0CBCB"/>
<path d="M11.1825 96.2223C11.1825 96.3279 11.1825 102.064 11.1825 102.064H10.207V102.698H11.1825V106.607H29.414V103.05H28.0634V102.275H29.414V101.113H30.0142V100.584H29.3015V96.222H11.1825V96.2223Z" fill="#EDEAEA"/>
<path d="M24.5723 96.2394V106.543H29.414V102.985H28.0634V102.275L29.414 102.299V101.137L30.0257 101.138L30.014 100.537L29.3012 100.52V96.2223L24.5723 96.2394Z" fill="#D0CBCB"/>
<path d="M24.9178 102.614C24.9178 102.65 21.6187 102.679 17.5502 102.679C13.48 102.679 10.1816 102.65 10.1816 102.614C10.1816 102.578 13.48 102.549 17.5502 102.549C21.6189 102.549 24.9178 102.578 24.9178 102.614Z" fill="#D0CBCB"/>
<path d="M24.9178 102.021C24.9178 102.057 21.6187 102.086 17.5502 102.086C13.48 102.086 10.1816 102.057 10.1816 102.021C10.1816 101.985 13.48 101.956 17.5502 101.956C21.6189 101.956 24.9178 101.985 24.9178 102.021Z" fill="#D0CBCB"/>
<path d="M25.8648 100.424C25.8648 100.46 22.5657 100.488 18.4972 100.488C14.4271 100.488 11.1289 100.459 11.1289 100.424C11.1289 100.388 14.4273 100.359 18.4972 100.359C22.5657 100.359 25.8648 100.388 25.8648 100.424Z" fill="#D0CBCB"/>
<path d="M25.9546 104.775C25.9546 104.811 22.6555 104.84 18.5871 104.84C14.5169 104.84 11.2188 104.811 11.2188 104.775C11.2188 104.74 14.5171 104.711 18.5871 104.711C22.6555 104.711 25.9546 104.74 25.9546 104.775Z" fill="#D0CBCB"/>
<path d="M13.3581 106.183C13.3581 106.289 13.3581 112.024 13.3581 112.024H12.3828V112.658H13.3581V116.568H31.5895V113.01H30.239V112.236H31.5895V111.073H32.1898V110.545H31.477V106.183H13.3581V106.183Z" fill="#EDEAEA"/>
<path d="M26.748 106.2V116.503H31.5895V112.946H30.239V112.236L31.5895 112.26V111.098L32.2014 111.098L32.1897 110.498L31.477 110.48V106.183L26.748 106.2Z" fill="#D0CBCB"/>
<path d="M27.0933 112.575C27.0933 112.611 23.7942 112.639 19.7257 112.639C15.6558 112.639 12.3574 112.61 12.3574 112.575C12.3574 112.539 15.6558 112.51 19.7257 112.51C23.7944 112.51 27.0933 112.539 27.0933 112.575Z" fill="#D0CBCB"/>
<path d="M27.0933 111.981C27.0933 112.017 23.7942 112.046 19.7257 112.046C15.6558 112.046 12.3574 112.017 12.3574 111.981C12.3574 111.946 15.6558 111.917 19.7257 111.917C23.7944 111.917 27.0933 111.945 27.0933 111.981Z" fill="#D0CBCB"/>
<path d="M28.0406 110.384C28.0406 110.42 24.7415 110.449 20.673 110.449C16.6028 110.449 13.3047 110.42 13.3047 110.384C13.3047 110.349 16.6031 110.32 20.673 110.32C24.7415 110.32 28.0406 110.348 28.0406 110.384Z" fill="#D0CBCB"/>
<path d="M28.1304 114.736C28.1304 114.772 24.8313 114.801 20.7628 114.801C16.6927 114.801 13.3945 114.772 13.3945 114.736C13.3945 114.7 16.6929 114.671 20.7628 114.671C24.8313 114.671 28.1304 114.7 28.1304 114.736Z" fill="#D0CBCB"/>
<path d="M73.5898 106.31C73.5898 106.413 73.5898 111.972 73.5898 111.972H72.6445V112.586H73.5898V116.375H91.259V112.928H89.9502V112.177H91.259V111.05H91.8407V110.538H91.15V106.31H73.5898V106.31Z" fill="#EDEAEA"/>
<path d="M86.5664 106.327V116.312H91.2585V112.865H89.9497V112.177L91.2585 112.2V111.074L91.8517 111.074L91.8405 110.492L91.1497 110.475V106.31L86.5664 106.327Z" fill="#D0CBCB"/>
<path d="M86.9007 112.505C86.9007 112.54 83.7033 112.568 79.7603 112.568C75.8158 112.568 72.6191 112.54 72.6191 112.505C72.6191 112.47 75.8158 112.442 79.7603 112.442C83.7036 112.442 86.9007 112.47 86.9007 112.505Z" fill="#D0CBCB"/>
<path d="M86.9007 111.93C86.9007 111.965 83.7033 111.993 79.7603 111.993C75.8158 111.993 72.6191 111.965 72.6191 111.93C72.6191 111.895 75.8158 111.867 79.7603 111.867C83.7036 111.867 86.9007 111.895 86.9007 111.93Z" fill="#D0CBCB"/>
<path d="M87.8187 110.382C87.8187 110.417 84.6213 110.445 80.6783 110.445C76.7338 110.445 73.5371 110.417 73.5371 110.382C73.5371 110.348 76.7338 110.32 80.6783 110.32C84.6215 110.32 87.8187 110.348 87.8187 110.382Z" fill="#D0CBCB"/>
<path d="M87.9066 114.6C87.9066 114.634 84.7092 114.663 80.7661 114.663C76.8216 114.663 73.625 114.634 73.625 114.6C73.625 114.565 76.8216 114.537 80.7661 114.537C84.7092 114.537 87.9066 114.565 87.9066 114.6Z" fill="#D0CBCB"/>
<path d="M40.905 96.2223C40.905 96.3279 40.905 102.064 40.905 102.064H39.9297V102.698H40.905V106.607H59.1364V103.05H57.7859V102.275H59.1364V101.113H59.7366V100.584H59.0239V96.222H40.905V96.2223Z" fill="#EDEAEA"/>
<path d="M54.2949 96.2394V106.543H59.1364V102.985H57.7858V102.275L59.1364 102.299V101.137L59.7483 101.138L59.7366 100.537L59.0239 100.52V96.2223L54.2949 96.2394Z" fill="#D0CBCB"/>
<path d="M54.6402 102.614C54.6402 102.65 51.3411 102.679 47.2726 102.679C43.2024 102.679 39.9043 102.65 39.9043 102.614C39.9043 102.578 43.2027 102.549 47.2726 102.549C51.3411 102.549 54.6402 102.578 54.6402 102.614Z" fill="#D0CBCB"/>
<path d="M54.6402 102.021C54.6402 102.057 51.3411 102.086 47.2726 102.086C43.2024 102.086 39.9043 102.057 39.9043 102.021C39.9043 101.985 43.2027 101.956 47.2726 101.956C51.3411 101.956 54.6402 101.985 54.6402 102.021Z" fill="#D0CBCB"/>
<path d="M55.5875 100.424C55.5875 100.46 52.2883 100.488 48.2199 100.488C44.1497 100.488 40.8516 100.459 40.8516 100.424C40.8516 100.388 44.15 100.359 48.2199 100.359C52.2883 100.359 55.5875 100.388 55.5875 100.424Z" fill="#D0CBCB"/>
<path d="M55.6773 104.775C55.6773 104.811 52.3782 104.84 48.3097 104.84C44.2396 104.84 40.9414 104.811 40.9414 104.775C40.9414 104.74 44.2398 104.711 48.3097 104.711C52.3784 104.711 55.6773 104.74 55.6773 104.775Z" fill="#D0CBCB"/>
<path d="M39.3053 106.183C39.3053 106.289 39.3053 112.024 39.3053 112.024H38.3301V112.658H39.3053V116.568H57.5368V113.01H56.1862V112.236H57.5368V111.073H58.137V110.545H57.4243V106.183H39.3053V106.183Z" fill="#EDEAEA"/>
<path d="M52.6953 106.2V116.503H57.5368V112.946H56.1862V112.236L57.5368 112.26V111.098L58.1487 111.098L58.137 110.498L57.4243 110.48V106.183L52.6953 106.2Z" fill="#D0CBCB"/>
<path d="M53.0408 112.575C53.0408 112.611 49.7417 112.639 45.6732 112.639C41.6031 112.639 38.3047 112.61 38.3047 112.575C38.3047 112.539 41.6031 112.51 45.6732 112.51C49.7417 112.51 53.0408 112.539 53.0408 112.575Z" fill="#D0CBCB"/>
<path d="M53.0408 111.981C53.0408 112.017 49.7417 112.046 45.6732 112.046C41.6031 112.046 38.3047 112.017 38.3047 111.981C38.3047 111.946 41.6031 111.917 45.6732 111.917C49.7417 111.917 53.0408 111.945 53.0408 111.981Z" fill="#D0CBCB"/>
<path d="M53.9878 110.384C53.9878 110.42 50.6887 110.449 46.6203 110.449C42.5501 110.449 39.252 110.42 39.252 110.384C39.252 110.349 42.5503 110.32 46.6203 110.32C50.689 110.32 53.9878 110.348 53.9878 110.384Z" fill="#D0CBCB"/>
<path d="M54.0777 114.736C54.0777 114.772 50.7786 114.801 46.7101 114.801C42.6399 114.801 39.3418 114.772 39.3418 114.736C39.3418 114.7 42.6402 114.671 46.7101 114.671C50.7788 114.671 54.0777 114.7 54.0777 114.736Z" fill="#D0CBCB"/>
<path d="M5.52148 95.4605C5.71888 97.0443 6.93571 98.3514 8.34822 99.0947C9.76074 99.8379 11.3638 100.115 12.9335 100.403C14.5031 100.691 16.105 101.014 17.475 101.833L20.1947 94.2676C20.1947 94.2676 16.8402 92.715 13.3685 92.8529C10.5594 92.9644 8.32895 89.2429 8.32895 89.2429L5.52148 95.4605Z" fill="#D0CBCB"/>
<path d="M17.5864 114.684C20.1225 112.07 22.9634 110.641 26.5914 110.326C25.7348 108.991 24.2122 106.389 23.3555 105.054C18.7961 105.078 15.2537 107.649 12.8574 111.481C14.5427 112.695 15.9011 113.469 17.5864 114.684Z" fill="#D0CBCB"/>
<path d="M108.423 116.426C108.423 116.461 86.9703 116.49 60.5134 116.49C34.0475 116.49 12.5996 116.461 12.5996 116.426C12.5996 116.391 34.0475 116.363 60.5134 116.363C86.9703 116.363 108.423 116.391 108.423 116.426Z" fill="#263238"/>
<path d="M66.3147 12.4778H61.6016V19.8332H66.3147V12.4778Z" fill="#263238"/>
<path d="M68.8425 14.6775H59.1348V6.74965C62.5332 5.91248 65.7791 5.86124 68.8425 6.74965V14.6775Z" fill="#FE3C77"/>
<path d="M68.9568 6.78305C68.9612 6.79354 68.8339 6.856 68.5986 6.96068C68.3649 7.06828 68.0155 7.19931 67.5763 7.33693C67.1376 7.47747 66.6027 7.60606 66.002 7.71025C65.4 7.8059 64.7312 7.87202 64.0268 7.87836C63.3224 7.87861 62.6526 7.81883 62.0497 7.72904C61.448 7.6307 60.9119 7.50724 60.4717 7.37084C60.0311 7.23713 59.6804 7.10976 59.4457 7.00436C59.2095 6.90212 59.0814 6.84088 59.0861 6.83038C59.0978 6.80135 59.6219 7.02168 60.5035 7.25836C60.9434 7.37914 61.476 7.48943 62.0719 7.57824C62.669 7.65876 63.3302 7.71293 64.0256 7.71269C64.7207 7.7061 65.3813 7.64559 65.9776 7.55946C66.5725 7.46478 67.1039 7.34962 67.5429 7.22444C68.4227 6.97947 68.9449 6.75401 68.9568 6.78305Z" fill="#263238"/>
<path d="M62.3425 14.6555C62.2969 14.6555 62.2598 13.1334 62.2598 11.2563C62.2598 9.37876 62.2969 7.85693 62.3425 7.85693C62.3881 7.85693 62.4252 9.37876 62.4252 11.2563C62.4252 13.1334 62.3881 14.6555 62.3425 14.6555Z" fill="#263238"/>
<path d="M64.1884 14.7016C64.1426 14.7016 64.1055 13.1727 64.1055 11.2873C64.1055 9.40122 64.1426 7.87256 64.1884 7.87256C64.2341 7.87256 64.2711 9.40122 64.2711 11.2873C64.2711 13.1727 64.2341 14.7016 64.1884 14.7016Z" fill="#263238"/>
<path d="M66.0358 14.6709C65.9902 14.6709 65.9531 13.142 65.9531 11.2563C65.9531 9.37021 65.9902 7.84155 66.0358 7.84155C66.0815 7.84155 66.1186 9.37021 66.1186 11.2563C66.1188 13.142 66.0817 14.6709 66.0358 14.6709Z" fill="#263238"/>
<path d="M67.5749 14.6709C67.529 14.6709 67.4922 13.0183 67.4922 10.9804C67.4922 8.9418 67.5293 7.28967 67.5749 7.28967C67.6205 7.28967 67.6576 8.9418 67.6576 10.9804C67.6576 13.0183 67.6208 14.6709 67.5749 14.6709Z" fill="#263238"/>
<path d="M60.5964 14.6238C60.5508 14.6238 60.5137 12.9712 60.5137 10.9333C60.5137 8.89468 60.5508 7.24231 60.5964 7.24231C60.642 7.24231 60.6791 8.89443 60.6791 10.9333C60.6793 12.9712 60.6423 14.6238 60.5964 14.6238Z" fill="#263238"/>
<path d="M93.1536 24.4066L90.7988 21.9425L86.9532 25.6174L89.3079 28.0815L93.1536 24.4066Z" fill="#263238"/>
<path d="M93.264 26.8245L88.4141 21.7491L92.5591 17.7882C94.6946 19.1468 96.3431 20.8182 97.4091 22.8637L93.264 26.8245Z" fill="#FE3C77"/>
<path d="M89.2252 22.5987C89.1979 22.5707 90.1377 21.6183 91.3236 20.472C92.5102 19.3252 93.4935 18.4188 93.5208 18.4471C93.5479 18.4751 92.6085 19.4272 91.4222 20.574C90.2361 21.7203 89.2523 22.627 89.2252 22.5987Z" fill="#263238"/>
<path d="M90.1509 23.5661C90.1377 23.5514 90.38 23.3092 90.7814 22.928C91.1828 22.5469 91.7435 22.0274 92.3667 21.4579C92.9769 20.9055 93.5286 20.406 93.9693 20.0071C94.1554 19.8409 94.3174 19.696 94.4575 19.5711C94.5751 19.4671 94.6322 19.4144 94.6385 19.4137C94.6917 19.4635 93.7087 20.4243 92.4621 21.5628C91.8386 22.1326 91.2672 22.6406 90.8485 23.0027C90.43 23.3645 90.1641 23.5807 90.1509 23.5661Z" fill="#263238"/>
<path d="M91.3814 24.8539C91.3682 24.8393 91.6139 24.5953 92.0211 24.212C92.4284 23.8286 92.9971 23.306 93.6298 22.7341C94.2508 22.1799 94.812 21.679 95.2597 21.2796C95.4503 21.1139 95.6162 20.9697 95.7595 20.8455C95.8812 20.7408 95.9373 20.6969 95.949 20.693C95.9727 20.7093 95.7294 20.9682 95.3276 21.3535C94.9245 21.7417 94.3579 22.267 93.7247 22.8395C93.0918 23.4116 92.5123 23.9223 92.088 24.2869C91.6639 24.6507 91.3945 24.8683 91.3814 24.8539Z" fill="#263238"/>
<path d="M92.5318 26.0261C92.505 25.9978 93.4566 25.0516 94.6573 23.9128C95.8585 22.7738 96.8538 21.874 96.8806 21.9023C96.9075 21.9306 95.9561 22.8766 94.7549 24.0155C93.5542 25.1543 92.5586 26.0544 92.5318 26.0261Z" fill="#263238"/>
<path d="M33.7664 24.0437L31.2109 26.299L34.7305 30.2871L37.286 28.0319L33.7664 24.0437Z" fill="#263238"/>
<path d="M36.1881 24.029L30.9243 28.6738L27.1309 24.375C28.5729 22.2949 30.3085 20.714 32.3947 19.7302L36.1881 24.029Z" fill="#FE3C77"/>
<path d="M31.8051 27.8964C31.7758 27.9225 30.8615 26.9458 29.7633 25.7153C28.6645 24.4843 27.7978 23.4656 27.8269 23.4395C27.8562 23.4134 28.7702 24.3899 29.8689 25.6208C30.9674 26.8513 31.8343 27.8703 31.8051 27.8964Z" fill="#263238"/>
<path d="M32.8095 27.0109C32.7943 27.0233 32.5618 26.7718 32.1968 26.3555C31.832 25.9392 31.335 25.3585 30.7906 24.7131C30.2626 24.0814 29.7856 23.5105 29.4045 23.0542C29.2459 22.8617 29.1075 22.6938 28.988 22.5489C28.8889 22.4271 28.8381 22.3678 28.8379 22.3617C28.8899 22.3105 29.8107 23.3309 30.899 24.6216C31.4436 25.267 31.9284 25.8582 32.2737 26.2911C32.6189 26.7239 32.8244 26.9984 32.8095 27.0109Z" fill="#263238"/>
<path d="M34.1444 25.8327C34.1293 25.8451 33.8953 25.5902 33.5283 25.168C33.1614 24.7459 32.6619 24.1569 32.1153 23.502C31.5863 22.8596 31.1081 22.2788 30.7267 21.8157C30.5689 21.6186 30.4312 21.447 30.3129 21.2992C30.2131 21.1733 30.1716 21.1157 30.168 21.1037C30.1853 21.0808 30.4342 21.3341 30.8033 21.7508C31.1752 22.169 31.6776 22.7559 32.2244 23.4112C32.771 24.0664 33.2585 24.6656 33.6057 25.1041C33.9527 25.5423 34.1596 25.82 34.1444 25.8327Z" fill="#263238"/>
<path d="M35.3608 24.7284C35.3312 24.7542 34.4236 23.7655 33.3336 22.5207C32.2432 21.2753 31.3833 20.2451 31.4128 20.2192C31.4424 20.1934 32.3498 21.1818 33.4402 22.4272C34.5302 23.6723 35.39 24.7027 35.3608 24.7284Z" fill="#263238"/>
<path d="M90.5172 82.7609C105.69 67.5879 105.69 42.9875 90.5172 27.8145C75.3442 12.6415 50.7439 12.6415 35.5709 27.8145C20.3978 42.9875 20.3978 67.5879 35.5708 82.7609C50.7439 97.9339 75.3442 97.9339 90.5172 82.7609Z" fill="#FE3C77"/>
<path d="M88.2843 80.5277C102.224 66.588 102.224 43.9874 88.2843 30.0478C74.3446 16.1081 51.744 16.1081 37.8044 30.0478C23.8648 43.9874 23.8648 66.588 37.8044 80.5277C51.744 94.4673 74.3446 94.4673 88.2843 80.5277Z" fill="white"/>
<path d="M63.0455 91.1045C43.2959 91.1045 27.2285 75.0371 27.2285 55.2875C27.2285 35.5381 43.2959 19.4707 63.0455 19.4707C82.7949 19.4707 98.8623 35.5381 98.8623 55.2875C98.862 75.0371 82.7949 91.1045 63.0455 91.1045ZM63.0455 19.7147C43.4304 19.7147 27.4725 35.6725 27.4725 55.2875C27.4725 74.9024 43.4304 90.8605 63.0455 90.8605C82.6604 90.8605 98.6183 74.9026 98.6183 55.2875C98.618 35.6725 82.6602 19.7147 63.0455 19.7147Z" fill="#263238"/>
<path d="M40.6445 41.0336C42.1315 36.4166 45.1795 33.2939 49.2167 30.6058C53.2542 27.9176 58.7603 26.9109 63.5935 27.3201V56.0884L40.6445 41.0336Z" fill="#FE3C77"/>
<g opacity="0.8">
<path d="M40.6445 41.0336C42.1315 36.4166 45.1795 33.2939 49.2167 30.6058C53.2542 27.9176 58.7603 26.9109 63.5935 27.3201V56.0884L40.6445 41.0336Z" fill="white"/>
</g>
<path d="M60.5034 55.9303L44.4473 43.4573L63.2504 52.1273L63.8035 55.4223L60.5034 55.9303Z" fill="#FE3C77"/>
<g opacity="0.4">
<path d="M44.4473 43.4573L61.2137 53.3163L63.2504 52.1273L44.4473 43.4573Z" fill="black"/>
</g>
<path d="M65.0802 58.5687C66.7874 57.8684 67.6037 55.9168 66.9034 54.2096C66.2032 52.5024 64.2515 51.6861 62.5443 52.3864C60.8371 53.0866 60.0208 55.0383 60.7211 56.7455C61.4213 58.4527 63.373 59.269 65.0802 58.5687Z" fill="#FAFAFA"/>
<path d="M63.8124 52.1353C63.8142 52.157 63.5145 52.1387 63.0046 52.2707C62.5044 52.4013 61.7699 52.7373 61.2029 53.49C60.9259 53.8628 60.6912 54.332 60.5975 54.8723C60.5072 55.4088 60.5255 56.0137 60.7456 56.5888C60.8466 56.8782 60.9994 57.1573 61.1916 57.4138C61.3802 57.6731 61.6142 57.9084 61.8853 58.1023C62.4194 58.5032 63.1051 58.7289 63.8122 58.7355C64.5193 58.7292 65.2054 58.5035 65.7396 58.1026C66.0106 57.9086 66.2446 57.6731 66.4335 57.414C66.6258 57.1576 66.7785 56.8784 66.8795 56.589C67.0996 56.0139 67.1179 55.4091 67.0276 54.8725C66.9339 54.3323 66.6992 53.8633 66.4223 53.4902C65.8552 52.7375 65.121 52.4018 64.6208 52.2712C64.1104 52.1387 63.811 52.157 63.8124 52.1353C63.8124 52.1353 64.1109 52.0936 64.6359 52.2088C65.1503 52.3227 65.9147 52.6494 66.5143 53.4195C66.8071 53.8009 67.0576 54.2852 67.1613 54.8471C67.2616 55.4049 67.2477 56.0366 67.0218 56.6403C66.9176 56.9441 66.7597 57.2374 66.5594 57.507C66.363 57.7798 66.1185 58.0274 65.8347 58.2319C65.2757 58.654 64.5542 58.8934 63.812 58.8995C63.0699 58.8931 62.3487 58.654 61.7899 58.2317C61.5064 58.0272 61.2619 57.7795 61.0655 57.5067C60.8654 57.2371 60.7073 56.9438 60.6034 56.64C60.3774 56.0364 60.3635 55.4049 60.4638 54.8471C60.5675 54.2854 60.8178 53.8009 61.1106 53.4195C61.7099 52.6494 62.4748 52.3227 62.9889 52.2085C63.514 52.0936 63.8124 52.1353 63.8124 52.1353Z" fill="#263238"/>
<path d="M63.8128 52.9899C65.1863 52.9899 66.2994 54.1032 66.2994 55.4765C66.2994 56.8499 65.186 57.9631 63.8128 57.9631C62.4393 57.9631 61.3262 56.8497 61.3262 55.4765C61.3262 54.1032 62.4395 52.9899 63.8128 52.9899Z" fill="#263238"/>
<path d="M63.6478 54.4966C63.6478 54.4966 62.9629 32.9831 63.9579 28.4457C63.9579 28.4457 65.6225 41.4875 63.6478 54.4966Z" fill="#263238"/>
<path d="M61.7024 88.2853L61.6595 88.2833L61.7554 85.6013L61.8318 85.6047L61.7024 88.2853ZM75.0961 86.1103L74.094 83.6207L74.1689 83.5912L75.1325 86.0966L75.0961 86.1103ZM48.5308 84.8298L48.4903 84.8093L49.6842 82.4054L49.7504 82.4388L48.5308 84.8298ZM86.4741 78.6568L84.5601 76.7753L84.6101 76.725L86.5077 78.6226L86.4741 78.6568ZM37.9164 76.3215L37.8763 76.2724L39.9564 74.5764L39.9916 74.6193L37.9164 76.3215ZM93.8595 67.219L91.3438 66.2836L91.3702 66.2138L93.8753 67.1773L93.8595 67.219ZM31.6675 64.23L31.6487 64.1612L34.2429 63.4727L34.2554 63.5188L31.6675 64.23ZM93.2597 53.9147L93.2573 53.8718L95.9364 53.7105L95.9408 53.7864L93.2597 53.9147ZM93.2573 53.8664L93.2536 53.8073L95.9327 53.6461L95.9364 53.7061L93.2573 53.8664ZM33.5326 51.0433L30.8789 50.6412L30.8882 50.5812L33.5414 50.9855L33.5326 51.0433ZM89.9728 41.806L89.9472 41.7567L92.3315 40.524L92.3603 40.5799L89.9728 41.806ZM37.9469 39.3562L35.6891 37.9049L35.7189 37.8585L37.9813 39.3025L37.9469 39.3562ZM82.063 32.1397L82.0167 32.1026L83.6932 30.0066L83.7396 30.0437L82.063 32.1397ZM46.7277 30.4673L45.2576 28.2218L45.2978 28.1954L46.7867 30.4285L46.7277 30.4673ZM70.9034 26.5062L70.8532 26.493L71.5266 23.8949L71.592 23.912L70.9034 26.5062ZM58.3679 25.9208L57.9319 23.2725L57.9919 23.2627L58.4253 25.9113L58.3679 25.9208Z" fill="#263238"/>
<path d="M106.579 87.0625C106.579 87.0976 103.27 87.1259 99.1893 87.1259C95.107 87.1259 91.7988 87.0976 91.7988 87.0625C91.7988 87.0273 95.107 86.999 99.1893 86.999C103.27 86.999 106.579 87.0273 106.579 87.0625Z" fill="#263238"/>
<path d="M111.23 85.4077C111.23 85.4428 107.921 85.4711 103.84 85.4711C99.7574 85.4711 96.4492 85.4428 96.4492 85.4077C96.4492 85.3725 99.7574 85.3442 103.84 85.3442C107.921 85.3442 111.23 85.3728 111.23 85.4077Z" fill="#263238"/>
<path d="M22.2433 76.1132C22.2433 76.1484 19.174 76.1767 15.3886 76.1767C11.602 76.1767 8.5332 76.1481 8.5332 76.1132C8.5332 76.0783 11.602 76.0498 15.3886 76.0498C19.174 76.0498 22.2433 76.0781 22.2433 76.1132Z" fill="#263238"/>
<path d="M26.5558 74.4587C26.5558 74.4938 23.4865 74.5221 19.7011 74.5221C15.9145 74.5221 12.8457 74.4936 12.8457 74.4587C12.8457 74.4238 15.9145 74.3953 19.7011 74.3953C23.4865 74.395 26.5558 74.4236 26.5558 74.4587Z" fill="#263238"/>
<path d="M35.8305 105.214C38.3664 102.601 41.2076 101.172 44.8356 100.857C43.9789 99.5217 42.4563 96.9194 41.5997 95.5842C37.0403 95.6084 33.4979 98.1799 31.1016 102.012C32.7866 103.226 34.1452 104 35.8305 105.214Z" fill="#D0CBCB"/>
<path d="M35.8315 105.214C35.8317 105.216 35.8041 105.199 35.7488 105.162C35.6873 105.121 35.6053 105.066 35.5006 104.995C35.2783 104.846 34.9614 104.633 34.5563 104.362C33.7362 103.813 32.5138 103.073 31.0752 102.049L31.0391 102.024L31.0627 101.987C31.4766 101.335 31.9572 100.646 32.5336 99.9579C33.1167 99.2771 33.7948 98.5991 34.5841 97.9825C35.3723 97.3661 36.2741 96.814 37.2752 96.3948C38.2749 95.9744 39.3726 95.6913 40.5138 95.5813C40.6954 95.5561 40.8771 95.5471 41.0587 95.5422C41.24 95.5349 41.4205 95.5276 41.6001 95.5205L41.6345 95.519L41.6538 95.5495C42.833 97.4154 43.8735 99.2303 44.8851 100.825L44.9361 100.905L44.8414 100.914C43.3398 101.048 41.972 101.368 40.8227 101.832C39.6664 102.282 38.7321 102.856 37.9994 103.374C37.2672 103.898 36.7365 104.374 36.3771 104.701C36.2031 104.866 36.0674 104.995 35.9698 105.088C35.9274 105.128 35.8934 105.159 35.8664 105.184C35.8432 105.206 35.8315 105.216 35.8315 105.214C35.8312 105.212 35.8427 105.2 35.8651 105.175C35.8912 105.148 35.9239 105.113 35.9647 105.07C36.0538 104.978 36.1782 104.843 36.3517 104.675C36.7035 104.338 37.2289 103.852 37.9587 103.318C38.6892 102.789 39.6249 102.203 40.7871 101.743C41.942 101.268 43.3201 100.939 44.8314 100.799L44.7877 100.888C43.7685 99.2928 42.7245 97.4793 41.5469 95.6184L41.6006 95.6474C41.423 95.6547 41.2444 95.6618 41.065 95.6691C40.8854 95.6742 40.7054 95.6828 40.526 95.7079C39.3973 95.8167 38.3125 96.0959 37.3233 96.5099C36.3329 96.923 35.4394 97.4674 34.6566 98.0757C33.8729 98.6842 33.1977 99.3542 32.6153 100.028C32.0397 100.708 31.558 101.391 31.142 102.036L31.1298 101.973C32.5577 103.003 33.7731 103.756 34.5851 104.318C34.9933 104.596 35.3056 104.82 35.516 104.973C35.6146 105.047 35.6919 105.105 35.7497 105.149C35.8032 105.189 35.8312 105.212 35.8315 105.214Z" fill="#263238"/>
<path d="M33.1977 101.021C33.219 100.993 33.9554 101.518 34.8421 102.194C35.729 102.869 36.4307 103.439 36.4095 103.467C36.3883 103.495 35.6521 102.97 34.7652 102.295C33.8782 101.619 33.1765 101.049 33.1977 101.021Z" fill="#263238"/>
<path d="M34.1315 99.8383C34.1552 99.8125 34.842 100.401 35.6653 101.152C36.489 101.903 37.1373 102.533 37.1137 102.559C37.09 102.585 36.4034 101.997 35.5796 101.246C34.7564 100.494 34.1078 99.8642 34.1315 99.8383Z" fill="#263238"/>
<path d="M35.5223 98.7301C35.5367 98.7184 35.6895 98.8823 35.934 99.1481C36.1785 99.414 36.5193 99.7776 36.9 100.177C37.2809 100.576 37.6203 100.945 37.8508 101.225C38.0824 101.505 38.2105 101.69 38.1976 101.7C38.1832 101.712 38.0309 101.548 37.7835 101.285C37.5009 100.99 37.1718 100.645 36.8077 100.264C36.4266 99.8644 36.094 99.4887 35.8659 99.2066C35.638 98.9248 35.5097 98.7406 35.5223 98.7301Z" fill="#263238"/>
<path d="M39.38 101.273C39.3675 101.283 39.2104 101.124 38.9793 100.846C38.7487 100.569 38.4474 100.17 38.1422 99.7119C37.8359 99.2542 37.58 98.8267 37.3984 98.5161C37.2176 98.2047 37.1115 98.0085 37.1264 97.999C37.161 97.9766 37.6446 98.7266 38.2476 99.6414C38.5513 100.097 38.8388 100.501 39.0501 100.791C39.2619 101.081 39.3944 101.261 39.38 101.273Z" fill="#263238"/>
<path d="M40.4762 100.813C40.4623 100.823 40.333 100.663 40.1444 100.391C39.9558 100.119 39.7098 99.7329 39.4629 99.2922C39.2162 98.8511 39.0154 98.4397 38.8819 98.1367C38.7484 97.8336 38.6801 97.6404 38.6955 97.6333C38.7294 97.6182 39.0815 98.3541 39.5734 99.23C40.0634 100.107 40.5067 100.792 40.4762 100.813Z" fill="#263238"/>
<path d="M41.941 100.338C41.9269 100.348 41.7963 100.184 41.6019 99.9081C41.4074 99.6324 41.15 99.2435 40.8821 98.8038C40.6142 98.3641 40.3863 97.9571 40.2303 97.6577C40.0742 97.3586 39.9885 97.1678 40.0037 97.1595C40.0193 97.1509 40.1327 97.3264 40.3084 97.6136C40.509 97.9439 40.7379 98.3212 40.9906 98.7377C41.2449 99.153 41.4755 99.5292 41.6773 99.8588C41.852 100.147 41.9559 100.328 41.941 100.338Z" fill="#263238"/>
<path d="M55.8706 74.3551C51.8976 74.4408 48.596 73.3721 45.5365 70.8362C45.1785 72.5298 44.366 75.7179 44.0078 77.4115C47.5673 80.8878 52.2894 81.6066 57.0879 80.4678C56.7102 78.2326 56.2486 76.5902 55.8706 74.3551Z" fill="#FAFAFA"/>
<path d="M55.8703 74.3552C55.8718 74.3535 55.8796 74.3884 55.8945 74.4592C55.9101 74.5375 55.9311 74.6436 55.9579 74.7793C56.0157 75.0643 56.0987 75.4725 56.2048 75.9951C56.4205 77.0502 56.8017 78.5625 57.1338 80.4598L57.1413 80.5033L57.0984 80.513C56.2778 80.7012 55.3762 80.8683 54.4017 80.9603C53.4271 81.0418 52.3811 81.0484 51.2958 80.922C50.2117 80.7963 49.0883 80.5338 47.9901 80.0921C46.8921 79.6522 45.8231 79.031 44.853 78.2419C44.6927 78.1223 44.5448 77.9898 44.3999 77.8547C44.2535 77.7214 44.1078 77.5887 43.9629 77.4567L43.9375 77.4335L43.9453 77.3981C44.4597 75.0452 45.0428 72.8383 45.4793 70.8243L45.4996 70.7313L45.5728 70.7918C46.8423 71.8388 48.1509 72.6387 49.3997 73.1591C50.6429 73.6962 51.8089 73.9663 52.7757 74.1251C53.7456 74.2798 54.5232 74.3162 55.0534 74.3367C55.3157 74.3415 55.5199 74.3452 55.6654 74.3479C55.7295 74.3496 55.78 74.3508 55.8201 74.3518C55.8545 74.3528 55.8713 74.354 55.8703 74.3552C55.8693 74.3564 55.8506 74.3577 55.8144 74.3591C55.7737 74.3603 55.722 74.362 55.6563 74.364C55.5175 74.3664 55.3167 74.3755 55.0527 74.3733C54.5212 74.3645 53.7409 74.3389 52.7649 74.1937C51.7923 74.0441 50.617 73.7813 49.3621 73.2477C48.1018 72.7309 46.7796 71.9303 45.4991 70.8807L45.5926 70.8482C45.1612 72.8678 44.5817 75.0765 44.0695 77.4245L44.0517 77.3659C44.1952 77.4965 44.3396 77.628 44.4845 77.7597C44.628 77.8935 44.7744 78.025 44.933 78.1431C45.8934 78.9241 46.9504 79.5395 48.0367 79.9762C49.123 80.415 50.2349 80.677 51.3095 80.8046C52.385 80.9327 53.4232 80.9298 54.3922 80.8529C55.3608 80.7656 56.2588 80.604 57.0767 80.4218L57.0413 80.4752C56.7214 78.5806 56.3542 77.0646 56.1536 76.0054C56.0494 75.4766 55.9777 75.064 55.9311 74.7839C55.9111 74.65 55.8952 74.545 55.8837 74.4679C55.8737 74.3955 55.8689 74.3569 55.8703 74.3552Z" fill="#263238"/>
<path d="M54.7018 79.6307C54.6672 79.6356 54.5003 78.6632 54.3292 77.4591C54.1582 76.2545 54.0479 75.2743 54.0825 75.2692C54.1172 75.2643 54.2841 76.2364 54.4551 77.441C54.6262 78.6454 54.7367 79.6258 54.7018 79.6307Z" fill="#263238"/>
<path d="M53.0708 79.8338C53.0357 79.8357 52.9559 78.8522 52.8922 77.6375C52.8288 76.4224 52.8056 75.4364 52.8405 75.4345C52.8756 75.4325 52.9554 76.4158 53.0191 77.6309C53.0828 78.8456 53.1057 79.8321 53.0708 79.8338Z" fill="#263238"/>
<path d="M51.1395 79.6268C51.1209 79.6251 51.1295 79.3808 51.1444 78.9868C51.1595 78.5927 51.1741 78.0491 51.1846 77.4471C51.1949 76.8452 51.2137 76.2984 51.2486 75.9038C51.2822 75.5093 51.323 75.2675 51.3393 75.2689C51.3579 75.2706 51.3488 75.5149 51.3383 75.9087C51.3308 76.3474 51.3218 76.8708 51.3118 77.4496C51.3013 78.0522 51.2722 78.5988 51.2342 78.9926C51.1961 79.3867 51.1558 79.6285 51.1395 79.6268Z" fill="#263238"/>
<path d="M50.0939 74.6963C50.11 74.6975 50.1083 74.9415 50.0741 75.3341C50.0392 75.7265 49.967 76.2664 49.853 76.8562C49.7401 77.4464 49.6117 77.9744 49.5153 78.3553C49.4182 78.736 49.3516 78.9697 49.3343 78.9661C49.3172 78.9624 49.3528 78.7213 49.4277 78.3356C49.5134 77.9071 49.6154 77.3966 49.7283 76.8323C49.8418 76.2452 49.9275 75.7111 49.985 75.3234C50.0416 74.9354 50.0751 74.6946 50.0939 74.6963Z" fill="#263238"/>
<path d="M48.8898 74.2129C48.9064 74.2159 48.8832 74.4384 48.8201 74.7941C48.7571 75.1496 48.6512 75.6379 48.5053 76.1693C48.3589 76.701 48.2 77.1746 48.0722 77.5123C47.9446 77.8502 47.8506 78.0532 47.8348 78.0474C47.8177 78.041 47.8816 77.8273 47.987 77.4833C48.0927 77.1395 48.2369 76.6644 48.3826 76.1356C48.5277 75.6071 48.6468 75.125 48.732 74.7756C48.8176 74.4259 48.872 74.2095 48.8898 74.2129Z" fill="#263238"/>
<path d="M47.3865 73.4578C47.4034 73.461 47.378 73.6876 47.3165 74.0507C47.255 74.4138 47.1562 74.9128 47.0274 75.4596C46.8983 76.0066 46.7641 76.4973 46.6567 76.8496C46.5496 77.202 46.4713 77.4162 46.4547 77.4113C46.4374 77.4065 46.4852 77.1837 46.5701 76.8262C46.6665 76.4234 46.7792 75.9517 46.9037 75.4305C47.0249 74.9089 47.1347 74.4365 47.2284 74.0329C47.3124 73.6752 47.369 73.4544 47.3865 73.4578Z" fill="#263238"/>
<path d="M62.1146 95.0845C59.9608 98.0798 57.3253 99.933 53.7363 100.787C54.7931 101.998 56.7048 104.38 57.7614 105.591C62.3271 104.891 65.4959 101.788 67.3291 97.5925C65.4598 96.6256 63.9836 96.0514 62.1146 95.0845Z" fill="#EBEBEB"/>
<path d="M62.1155 95.0845C62.115 95.0823 62.1452 95.0957 62.206 95.124C62.2736 95.1564 62.3641 95.1999 62.4795 95.255C62.7243 95.3714 63.0734 95.5373 63.5197 95.7494C64.423 96.1776 65.7579 96.7385 67.3512 97.5506L67.3905 97.5706L67.3725 97.6108C67.0543 98.3248 66.6749 99.0873 66.1993 99.862C65.7157 100.631 65.1369 101.411 64.4374 102.146C63.7388 102.88 62.917 103.568 61.9759 104.136C61.0365 104.705 59.9785 105.152 58.851 105.431C58.6729 105.483 58.4918 105.519 58.3108 105.551C58.1302 105.585 57.9504 105.62 57.7715 105.654L57.7376 105.66L57.714 105.633C56.2553 103.938 54.9433 102.273 53.6931 100.825L53.6309 100.753L53.7231 100.731C55.2081 100.374 56.5315 99.8495 57.6144 99.2139C58.7065 98.5917 59.5576 97.8778 60.2152 97.2495C60.8713 96.6165 61.3327 96.0602 61.6441 95.6786C61.7939 95.4873 61.9108 95.3382 61.9947 95.2311C62.0315 95.185 62.0606 95.1484 62.084 95.1189C62.1047 95.0947 62.1152 95.083 62.1155 95.0845C62.116 95.0859 62.1062 95.1008 62.0874 95.1284C62.0652 95.1599 62.0379 95.1991 62.003 95.2487C61.9273 95.3533 61.8227 95.5073 61.6736 95.7018C61.3708 96.0914 60.9165 96.6565 60.2642 97.2997C59.6106 97.9383 58.7597 98.6639 57.6632 99.2976C56.5762 99.9447 55.2442 100.479 53.7502 100.844L53.7804 100.749C55.0383 102.197 56.3537 103.859 57.8098 105.549L57.7525 105.528C57.9294 105.495 58.1075 105.461 58.2861 105.427C58.4652 105.395 58.6446 105.36 58.8207 105.308C59.9358 105.032 60.9818 104.591 61.9117 104.029C62.8431 103.468 63.658 102.79 64.3522 102.064C65.0474 101.338 65.6247 100.566 66.1083 99.8051C66.5841 99.038 66.9655 98.2818 67.2868 97.5735L67.3083 97.6338C65.7245 96.8134 64.3947 96.2393 63.4975 95.7965C63.0471 95.5786 62.7011 95.4012 62.4673 95.2792C62.3573 95.2194 62.2711 95.1725 62.2067 95.1376C62.1474 95.1047 62.116 95.0867 62.1155 95.0845Z" fill="#263238"/>
<path d="M65.3786 98.8955C65.3615 98.9262 64.546 98.509 63.5574 97.9636C62.5682 97.4183 61.7803 96.9513 61.7971 96.9205C61.814 96.8898 62.6294 97.3068 63.6186 97.8524C64.6073 98.3977 65.3954 98.8647 65.3786 98.8955Z" fill="#263238"/>
<path d="M64.6173 100.22C64.5978 100.249 63.8224 99.7609 62.8857 99.1302C61.9487 98.4992 61.2052 97.9643 61.225 97.9351C61.2445 97.906 62.0197 98.3938 62.9567 99.0248C63.8934 99.6555 64.6371 100.191 64.6173 100.22Z" fill="#263238"/>
<path d="M63.3857 101.537C63.3733 101.551 63.1961 101.409 62.9116 101.179C62.6271 100.948 62.2319 100.634 61.7912 100.291C61.3503 99.9471 60.9552 99.6275 60.6825 99.3808C60.4089 99.1351 60.253 98.9689 60.2642 98.9567C60.2767 98.9431 60.4536 99.0851 60.7405 99.312C61.0665 99.5657 61.4481 99.8624 61.8695 100.19C62.3109 100.534 62.6998 100.862 62.9702 101.11C63.2408 101.359 63.397 101.525 63.3857 101.537Z" fill="#263238"/>
<path d="M59.1452 99.5609C59.1562 99.5487 59.337 99.6854 59.6095 99.9291C59.8816 100.173 60.2427 100.528 60.6165 100.942C60.9913 101.355 61.3112 101.745 61.5393 102.03C61.7667 102.315 61.9024 102.496 61.889 102.507C61.858 102.535 61.2624 101.854 60.5223 101.027C60.1502 100.616 59.8023 100.253 59.5473 99.9938C59.2921 99.7349 59.1328 99.5748 59.1452 99.5609Z" fill="#263238"/>
<path d="M58.1143 100.184C58.1267 100.173 58.2797 100.313 58.5088 100.558C58.7382 100.803 59.0417 101.153 59.3545 101.558C59.6673 101.964 59.9296 102.346 60.1082 102.63C60.2871 102.914 60.3844 103.097 60.37 103.107C60.3388 103.127 59.8769 102.441 59.2537 101.636C58.6333 100.83 58.0869 100.209 58.1143 100.184Z" fill="#263238"/>
<path d="M56.7158 100.878C56.7284 100.866 56.8834 101.011 57.1188 101.259C57.3545 101.506 57.67 101.858 58.0038 102.259C58.3376 102.66 58.6263 103.033 58.8273 103.31C59.0284 103.587 59.1426 103.765 59.1289 103.775C59.1148 103.786 58.9752 103.627 58.7566 103.365C58.5074 103.065 58.2217 102.72 57.9062 102.34C57.5893 101.961 57.3021 101.618 57.0517 101.318C56.8338 101.056 56.7026 100.89 56.7158 100.878Z" fill="#263238"/>
<path d="M87.6861 95.2125C90.7012 93.0946 93.7954 92.2123 97.4612 92.5849C96.8622 91.0957 95.8413 88.2214 95.2423 86.7323C90.7061 85.8936 86.6984 87.7793 83.5918 91.1345C85.037 92.6605 86.2409 93.6865 87.6861 95.2125Z" fill="#FAFAFA"/>
<path d="M87.6863 95.2125C87.6861 95.2147 87.6619 95.1923 87.6139 95.1454C87.5609 95.0927 87.4897 95.022 87.3989 94.9319C87.2064 94.7418 86.9314 94.4708 86.5803 94.124C85.869 93.4235 84.7939 92.4563 83.5578 91.167L83.5273 91.135L83.5576 91.1028C84.0922 90.5341 84.7002 89.9394 85.4032 89.3651C86.1118 88.7987 86.9138 88.2531 87.8149 87.7898C88.715 87.3264 89.7157 86.9482 90.79 86.7211C91.8631 86.4924 93.0077 86.4188 94.1628 86.5254C94.348 86.5347 94.5305 86.5603 94.7118 86.5896C94.8933 86.6166 95.0742 86.6435 95.254 86.6703L95.2881 86.6754L95.3013 86.7091C96.1204 88.7868 96.8112 90.7873 97.5149 92.5636L97.55 92.652L97.4556 92.6427C95.9377 92.4922 94.5173 92.5517 93.2873 92.7955C92.0529 93.0236 91.0157 93.4174 90.1893 93.7941C89.3626 94.1755 88.7448 94.5488 88.3258 94.8065C88.1216 94.9378 87.9625 95.04 87.8481 95.1135C87.7983 95.1449 87.7588 95.1698 87.7268 95.1898C87.6997 95.2064 87.6863 95.214 87.6863 95.2125C87.6866 95.2108 87.7002 95.2001 87.7273 95.1803C87.7585 95.1579 87.7973 95.1298 87.8464 95.0944C87.952 95.0207 88.1014 94.9097 88.3058 94.7753C88.7194 94.5071 89.3333 94.1233 90.1598 93.7309C90.9859 93.3435 92.0268 92.9384 93.269 92.7008C94.5066 92.4475 95.9386 92.3807 97.4673 92.5275L97.4078 92.6066C96.6965 90.8288 96.0018 88.8287 95.1837 86.7562L95.231 86.7948C95.0532 86.7684 94.8741 86.7418 94.6945 86.715C94.5152 86.6859 94.3343 86.6606 94.1513 86.6515C93.0087 86.5461 91.8775 86.6181 90.8161 86.8428C89.7535 87.0658 88.7621 87.4382 87.8691 87.8947C86.9748 88.3515 86.1772 88.8895 85.4708 89.4487C84.77 90.016 84.162 90.6038 83.6264 91.1663L83.6262 91.1023C84.8506 92.3963 85.9161 93.3742 86.6171 94.0867C86.9704 94.4403 87.2383 94.7211 87.4187 94.9129C87.5028 95.0054 87.5687 95.0778 87.618 95.132C87.6629 95.1827 87.6866 95.2103 87.6863 95.2125Z" fill="#263238"/>
<path d="M85.8622 90.5467C85.8883 90.5233 86.5205 91.1846 87.2742 92.0234C88.0281 92.8628 88.6179 93.5619 88.5918 93.5853C88.5657 93.6087 87.9335 92.9477 87.1798 92.1083C86.4258 91.2695 85.8361 90.5702 85.8622 90.5467Z" fill="#263238"/>
<path d="M87.0128 89.5476C87.0409 89.5266 87.6121 90.2413 88.2882 91.1438C88.9648 92.0466 89.4901 92.7952 89.4621 92.8162C89.434 92.8372 88.8631 92.1227 88.1864 91.2199C87.5103 90.3174 86.9847 89.5686 87.0128 89.5476Z" fill="#263238"/>
<path d="M88.6069 88.7094C88.6233 88.7006 88.7438 88.8926 88.9366 89.203C89.1291 89.5136 89.3992 89.9396 89.7018 90.4084C90.0048 90.8771 90.2725 91.3082 90.4486 91.6306C90.6258 91.9522 90.7183 92.16 90.7039 92.1679C90.6875 92.1766 90.5675 91.9846 90.3713 91.6764C90.1471 91.33 89.8848 90.9249 89.5949 90.4772C89.2916 90.0077 89.0322 89.5714 88.8587 89.2481C88.6853 88.9248 88.5925 88.7172 88.6069 88.7094Z" fill="#263238"/>
<path d="M91.9587 91.9664C91.9443 91.9744 91.8187 91.7863 91.6415 91.4666C91.4651 91.147 91.2411 90.6939 91.0242 90.1805C90.8063 89.6676 90.6328 89.1945 90.5113 88.8512C90.3903 88.5077 90.322 88.2927 90.3383 88.2861C90.3766 88.2705 90.7148 89.1077 91.1413 90.1307C91.357 90.6412 91.5664 91.097 91.7216 91.4254C91.8772 91.7538 91.9751 91.9571 91.9587 91.9664Z" fill="#263238"/>
<path d="M93.1351 91.7167C93.1195 91.7235 93.0217 91.5405 92.8858 91.2343C92.7499 90.9283 92.5786 90.4979 92.4166 90.0131C92.2548 89.528 92.133 89.081 92.0576 88.7548C91.9822 88.4283 91.9508 88.2233 91.9671 88.2194C92.0032 88.2109 92.2138 89.009 92.5371 89.9728C92.8577 90.9373 93.169 91.7018 93.1351 91.7167Z" fill="#263238"/>
<path d="M94.683 91.522C94.6671 91.5288 94.5685 91.3414 94.4278 91.0306C94.2867 90.7197 94.1047 90.2844 93.9215 89.7967C93.7382 89.3089 93.5886 88.8612 93.4901 88.5345C93.3915 88.2075 93.3422 88.0018 93.3586 87.9964C93.3756 87.9911 93.4549 88.1868 93.575 88.5057C93.7114 88.8709 93.8675 89.2899 94.04 89.752C94.2145 90.2134 94.3726 90.6314 94.5105 90.9962C94.63 91.3153 94.6993 91.5149 94.683 91.522Z" fill="#263238"/>
<path d="M62.1746 91.4989C63.456 92.4503 65.2416 92.4737 66.7549 91.9659C68.268 91.4582 69.5758 90.4904 70.8688 89.5547C72.1617 88.619 73.5015 87.684 75.0399 87.2589L71.4495 80.0663C71.4495 80.0663 68.0096 81.419 65.7108 84.0242C63.8508 86.1324 59.6191 85.1737 59.6191 85.1737L62.1746 91.4989Z" fill="#FAFAFA"/>
<path d="M62.1743 91.4989C62.1743 91.4989 62.1555 91.464 62.124 91.3917C62.0908 91.3137 62.0452 91.2065 61.9866 91.0687C61.8656 90.7771 61.6914 90.3564 61.4679 89.8174C61.0192 88.7202 60.3735 87.1415 59.5757 85.1907L59.543 85.1109L59.6289 85.128C60.4863 85.2998 61.4467 85.3784 62.459 85.3135C62.9646 85.2708 63.4821 85.1841 63.994 85.0255C64.5032 84.8611 64.9976 84.5998 65.4139 84.2277C65.6174 84.0398 65.815 83.828 66.0138 83.6123C66.2154 83.4002 66.4318 83.1982 66.6512 82.9959C67.0945 82.5955 67.5762 82.2217 68.0805 81.8626C69.0978 81.1562 70.2124 80.5171 71.4255 80.0072L71.479 79.9847L71.5056 80.0379C71.6532 80.3337 71.8118 80.6513 71.9714 80.971C73.0711 83.1765 74.1268 85.2944 75.0928 87.232L75.1253 87.2972L75.055 87.3167C74.0524 87.5958 73.1584 88.0789 72.3498 88.5965C71.54 89.1167 70.806 89.6728 70.0945 90.1742C69.3845 90.6768 68.6954 91.126 68.0159 91.473C67.3375 91.8202 66.6714 92.0705 66.0441 92.1962C65.4185 92.3294 64.8385 92.3465 64.3407 92.3048C63.842 92.2584 63.425 92.1469 63.1015 92.0213C62.7755 91.899 62.5464 91.7573 62.3939 91.6611C62.3236 91.6106 62.2689 91.5713 62.227 91.5411C62.1909 91.514 62.173 91.4998 62.1743 91.4989C62.1865 91.4815 62.4661 91.7446 63.1161 91.9842C63.4387 92.1028 63.8525 92.2072 64.3461 92.2472C64.8387 92.2828 65.4119 92.2604 66.0292 92.1235C66.648 91.9942 67.3049 91.7424 67.9756 91.3939C68.6476 91.0457 69.3301 90.5958 70.0362 90.0912C70.7435 89.5878 71.4763 89.0279 72.2895 88.502C73.1016 87.9792 74.0041 87.4872 75.0235 87.201L74.9857 87.2857C74.0178 85.3491 72.9598 83.2321 71.8579 81.0278C71.6983 80.7082 71.5397 80.3905 71.3921 80.0948L71.4721 80.1255C70.2743 80.6284 69.1612 81.2648 68.1518 81.9641C67.6506 82.3198 67.1721 82.69 66.7319 83.086C66.5143 83.2858 66.2993 83.4857 66.0995 83.695C65.9031 83.9068 65.7076 84.1161 65.4922 84.3145C65.0598 84.6993 64.5491 84.9662 64.0284 85.1324C63.505 85.293 62.9787 85.3786 62.4668 85.4198C61.4406 85.4813 60.4775 85.3979 59.6084 85.2188L59.6616 85.1561C60.4411 87.1095 61.0721 88.6904 61.5106 89.7891C61.7248 90.3335 61.892 90.7581 62.0079 91.0528C62.0618 91.1939 62.104 91.3037 62.1345 91.3834C62.1628 91.4584 62.1743 91.4989 62.1743 91.4989Z" fill="#263238"/>
<path d="M64.3392 91.0414C64.307 91.0553 63.8297 90.0227 63.2734 88.7351C62.7168 87.4473 62.2918 86.3922 62.324 86.3783C62.3562 86.3644 62.8332 87.3968 63.39 88.6846C63.9463 89.9722 64.3714 91.0275 64.3392 91.0414Z" fill="#263238"/>
<path d="M65.8927 90.8733C65.8614 90.8894 65.322 89.9109 64.6876 88.688C64.0529 87.4648 63.5639 86.4603 63.5952 86.4442C63.6264 86.4281 64.1659 87.4063 64.8003 88.6294C65.4347 89.8524 65.9237 90.8572 65.8927 90.8733Z" fill="#263238"/>
<path d="M67.0487 90.4114C67.0321 90.4187 66.9077 90.1742 66.7088 89.7787C66.5102 89.3829 66.2343 88.8376 65.9158 88.2424C65.5972 87.6473 65.2963 87.1152 65.0774 86.7304C64.8586 86.3456 64.7239 86.1065 64.7395 86.0967C64.7537 86.0877 64.9152 86.31 65.1545 86.684C65.3939 87.0578 65.7082 87.5851 66.0281 88.1824C66.3475 88.7797 66.6117 89.3338 66.7901 89.7401C66.9687 90.1469 67.0641 90.4045 67.0487 90.4114Z" fill="#263238"/>
<path d="M68.2515 89.3753C68.2359 89.3843 68.0934 89.1645 67.8679 88.8073C67.6186 88.4156 67.316 87.9408 66.9817 87.416C66.6382 86.8968 66.3273 86.4273 66.0711 86.0403C65.8364 85.6892 65.6934 85.4698 65.7081 85.4591C65.7217 85.4491 65.8903 85.6497 66.1446 85.9883C66.3988 86.327 66.7365 86.8048 67.0886 87.3469C67.4402 87.8888 67.7394 88.3917 67.9455 88.7616C68.1512 89.1313 68.2664 89.367 68.2515 89.3753Z" fill="#263238"/>
<path d="M69.4134 88.5143C69.3998 88.5245 69.227 88.3222 68.9647 87.9824C68.7022 87.6425 68.3515 87.1637 67.9819 86.6228C67.6122 86.0816 67.2936 85.5809 67.072 85.213C66.8505 84.845 66.7248 84.6108 66.7394 84.6017C66.7548 84.5922 66.9073 84.8096 67.1479 85.1647C67.4117 85.5541 67.7323 86.0277 68.087 86.5513C68.446 87.0718 68.7707 87.5427 69.0377 87.9297C69.2804 88.2822 69.4278 88.5035 69.4134 88.5143Z" fill="#263238"/>
<path d="M70.3744 87.6305C70.3607 87.6407 70.1879 87.4385 69.9256 87.0986C69.6631 86.7587 69.3125 86.2799 68.9428 85.739C68.5732 85.1978 68.2545 84.6971 68.0329 84.3292C67.8114 83.9612 67.6857 83.727 67.7004 83.718C67.7157 83.7084 67.8682 83.9258 68.1088 84.2809C68.3726 84.6703 68.6932 85.1436 69.0477 85.6675C69.4067 86.188 69.7314 86.6589 69.9984 87.0459C70.2416 87.3984 70.3888 87.6198 70.3744 87.6305Z" fill="#263238"/>
<path d="M71.4318 86.9056C71.403 86.9259 70.7696 86.078 70.0171 85.0119C69.2641 83.9456 68.6773 83.065 68.7061 83.0448C68.7346 83.0245 69.3681 83.8722 70.121 84.9385C70.8733 86.0048 71.4604 86.8853 71.4318 86.9056Z" fill="#263238"/>
<path d="M72.3334 86.5579C72.3181 86.5657 72.1746 86.318 71.964 85.9074C71.7408 85.4596 71.465 84.907 71.1603 84.2958C70.8453 83.6677 70.5471 83.1065 70.3131 82.711C70.0815 82.3142 69.9188 82.0802 69.9347 82.0683C69.9466 82.0588 70.1362 82.2755 70.3895 82.6637C70.6449 83.0502 70.9578 83.6084 71.2737 84.2387C71.589 84.8689 71.8545 85.4484 72.0448 85.8683C72.2349 86.2885 72.3495 86.5498 72.3334 86.5579Z" fill="#263238"/>
<path d="M24.1609 84.1826C25.4424 85.134 27.228 85.1574 28.7412 84.6499C30.2543 84.1421 31.5621 83.1744 32.8551 82.2387C34.148 81.3029 35.4878 80.3679 37.0263 79.9429L33.4358 72.7502C33.4358 72.7502 29.9959 74.1027 27.6972 76.7082C25.8372 78.8163 21.6055 77.8577 21.6055 77.8577L24.1609 84.1826Z" fill="#FAFAFA"/>
<path d="M24.1606 84.1826C24.1606 84.1826 24.1418 84.1477 24.1103 84.0755C24.0771 83.9974 24.0315 83.8903 23.973 83.7524C23.8519 83.4608 23.6777 83.0402 23.4542 82.5012C23.0055 81.4039 22.3599 79.8252 21.562 77.8744L21.5293 77.7947L21.6152 77.8117C22.4726 77.9835 23.433 78.0621 24.4453 77.9972C24.9509 77.9545 25.4684 77.8679 25.9803 77.7093C26.4896 77.5448 26.9839 77.2835 27.4002 76.9114C27.6037 76.7235 27.8013 76.5117 28.0002 76.296C28.2017 76.084 28.4181 75.8817 28.6375 75.6797C29.0809 75.2793 29.5625 74.9055 30.0669 74.5463C31.0841 73.8399 32.1987 73.2009 33.4119 72.6909L33.4653 72.6685L33.4919 72.7217C33.6395 73.0174 33.7981 73.3351 33.9577 73.6547C35.0571 75.8602 36.1132 77.9781 37.0792 79.9157L37.1116 79.9809L37.0414 80.0004C36.0388 80.2796 35.1447 80.7627 34.3361 81.2802C33.5263 81.8004 32.7923 82.3565 32.0811 82.8579C31.371 83.3605 30.682 83.8097 30.0024 84.1567C29.3241 84.5039 28.658 84.7543 28.0307 84.8799C27.4051 85.0131 26.8251 85.0302 26.3273 84.9885C25.8286 84.9421 25.4116 84.8306 25.088 84.705C24.7621 84.5827 24.5329 84.4412 24.3804 84.3448C24.3102 84.2943 24.2555 84.255 24.2135 84.2248C24.1772 84.1977 24.1591 84.1835 24.1606 84.1826C24.1728 84.1652 24.4524 84.4283 25.1024 84.6679C25.425 84.7865 25.8388 84.8907 26.3324 84.9309C26.8251 84.9665 27.3982 84.9441 28.0155 84.8072C28.6343 84.6779 29.2912 84.4261 29.9619 84.0777C30.6339 83.7295 31.3164 83.2795 32.0225 82.7749C32.7299 82.2716 33.4628 81.7118 34.2759 81.1858C35.0879 80.6629 35.9904 80.171 37.0099 79.8848L36.9723 79.9694C36.0044 78.0328 34.9464 75.9159 33.8445 73.7116C33.6849 73.3919 33.5263 73.0742 33.3787 72.7785L33.4587 72.8092C32.2609 73.3121 31.1478 73.9485 30.1383 74.6478C29.6372 75.0035 29.1589 75.3737 28.7185 75.7697C28.5006 75.9695 28.2859 76.1694 28.0861 76.3787C27.8896 76.5905 27.6942 76.7999 27.479 76.9982C27.0466 77.383 26.5359 77.65 26.0152 77.8161C25.4919 77.9767 24.9655 78.0623 24.4536 78.1036C23.4274 78.165 22.4641 78.0816 21.5952 77.9025L21.6484 77.8398C22.4279 79.7933 23.0589 81.3741 23.4974 82.4729C23.7116 83.0172 23.8788 83.4418 23.9947 83.7365C24.0488 83.8776 24.0908 83.9874 24.1213 84.0672C24.1489 84.1421 24.1606 84.1826 24.1606 84.1826Z" fill="#263238"/>
<path d="M26.3255 83.7251C26.2933 83.739 25.816 82.7064 25.2597 81.4191C24.7031 80.1312 24.2781 79.0762 24.3103 79.0623C24.3425 79.0484 24.8198 80.0807 25.3763 81.3686C25.9327 82.6559 26.3577 83.7112 26.3255 83.7251Z" fill="#263238"/>
<path d="M27.879 83.557C27.8478 83.5731 27.3083 82.5946 26.6739 81.3717C26.0392 80.1485 25.5503 79.144 25.5815 79.1279C25.6127 79.1118 26.1522 80.09 26.7866 81.3132C27.421 82.5361 27.9102 83.5409 27.879 83.557Z" fill="#263238"/>
<path d="M29.0351 83.0951C29.0185 83.1024 28.894 82.8579 28.6952 82.4624C28.4965 82.0669 28.2206 81.5213 27.9024 80.9262C27.5837 80.331 27.2829 79.7989 27.0638 79.4141C26.8449 79.0293 26.7102 78.7902 26.7258 78.7804C26.74 78.7714 26.9015 78.9937 27.1409 79.3677C27.3802 79.7415 27.6945 80.2688 28.0144 80.8661C28.334 81.4634 28.598 82.0176 28.7764 82.4238C28.955 82.8306 29.0504 83.0882 29.0351 83.0951Z" fill="#263238"/>
<path d="M30.2378 82.059C30.2222 82.068 30.0797 81.8482 29.8543 81.491C29.6049 81.0994 29.3023 80.6245 28.9681 80.0995C28.6245 79.5802 28.3137 79.1108 28.0575 78.7238C27.8227 78.3727 27.6797 78.1533 27.6944 78.1426C27.708 78.1326 27.8767 78.3331 28.1309 78.6718C28.3852 79.0105 28.7228 79.4882 29.0749 80.0304C29.4265 80.5723 29.7257 81.0752 29.9319 81.4451C30.1376 81.815 30.2525 82.0507 30.2378 82.059Z" fill="#263238"/>
<path d="M31.3998 81.198C31.3861 81.2082 31.2133 81.006 30.951 80.6661C30.6885 80.3262 30.3379 79.8475 29.9682 79.3065C29.5986 78.7653 29.2799 78.2646 29.0583 77.8967C28.8368 77.5287 28.7111 77.2945 28.7258 77.2855C28.7411 77.2759 28.8936 77.4933 29.1342 77.8484C29.3977 78.2378 29.7186 78.7112 30.0731 79.235C30.4321 79.7555 30.7568 80.2264 31.0238 80.6134C31.267 80.966 31.4142 81.1873 31.3998 81.198Z" fill="#263238"/>
<path d="M32.3607 80.3142C32.347 80.3244 32.1743 80.1222 31.912 79.7823C31.6494 79.4424 31.2988 78.9637 30.9291 78.4227C30.5595 77.8815 30.2408 77.3808 30.0193 77.0129C29.7977 76.6449 29.6721 76.4107 29.6867 76.4017C29.7021 76.3922 29.8546 76.6095 30.0952 76.9646C30.3589 77.354 30.6795 77.8274 31.0343 78.3512C31.3932 78.8717 31.718 79.3426 31.9849 79.7296C32.228 80.0822 32.3751 80.3035 32.3607 80.3142Z" fill="#263238"/>
<path d="M33.4181 79.5893C33.3894 79.6096 32.7559 78.7617 32.0034 77.6956C31.2505 76.6293 30.6636 75.7488 30.6924 75.7285C30.721 75.7083 31.3544 76.5559 32.1074 77.6224C32.8599 78.6885 33.4469 79.5691 33.4181 79.5893Z" fill="#263238"/>
<path d="M34.3198 79.2416C34.3044 79.2494 34.1609 79.0018 33.9503 78.5911C33.7271 78.1434 33.4514 77.5907 33.1466 76.9795C32.8316 76.3514 32.5334 75.7902 32.2994 75.3947C32.0679 74.998 31.9051 74.764 31.921 74.752C31.9329 74.7425 32.1225 74.9592 32.3758 75.3474C32.6313 75.7339 32.9441 76.2921 33.2601 76.9224C33.5753 77.5526 33.8408 78.1321 34.0311 78.5518C34.2209 78.9722 34.3356 79.2336 34.3198 79.2416Z" fill="#263238"/>
</g>
<defs>
<clipPath id="clip0_279_3270">
<rect width="122" height="122" fill="white" transform="translate(0 0.760742)"/>
</clipPath>
</defs>
</svg>
