<svg width="16" height="17" viewBox="0 0 16 17" fill="none" xmlns="http://www.w3.org/2000/svg">
<path d="M14.5787 11.6411V3.642C14.5787 2.84673 13.9292 2.25691 13.1405 2.32318H13.1008C11.7091 2.44247 9.59499 3.15158 8.41534 3.89383L8.30268 3.96673C8.11049 4.08602 7.79238 4.08602 7.6002 3.96673L7.43451 3.86732C6.25487 3.1317 4.14741 2.42922 2.7557 2.31655C1.96706 2.25028 1.32422 2.84673 1.32422 3.63537V11.6411C1.32422 12.2773 1.84114 12.8737 2.47735 12.9532L2.66954 12.9798C4.10765 13.1719 6.32777 13.9009 7.6002 14.5968L7.6267 14.61C7.80564 14.7095 8.09061 14.7095 8.26292 14.61C9.53534 13.9076 11.7621 13.1719 13.2068 12.9798L13.4255 12.9532C14.0617 12.8737 14.5787 12.2773 14.5787 11.6411Z" stroke="#FE3C77" stroke-width="1.49112" stroke-linecap="round" stroke-linejoin="round"/>
<path d="M7.94922 4.18604V14.1269" stroke="#FE3C77" stroke-width="1.49112" stroke-linecap="round" stroke-linejoin="round"/>
<path d="M5.13566 6.17383H3.64453" stroke="#FE3C77" stroke-width="1.49112" stroke-linecap="round" stroke-linejoin="round"/>
<path d="M5.6327 8.16211H3.64453" stroke="#FE3C77" stroke-width="1.49112" stroke-linecap="round" stroke-linejoin="round"/>
</svg>
