<svg width="69" height="69" viewBox="0 0 69 69" fill="none" xmlns="http://www.w3.org/2000/svg">
<g clip-path="url(#clip0_359_3991)">
<path d="M68.1949 34.0975C68.1949 15.2659 52.929 0 34.0975 0C15.2659 0 0 15.2659 0 34.0975C0 52.929 15.2659 68.1949 34.0975 68.1949C52.929 68.1949 68.1949 52.929 68.1949 34.0975Z" fill="#855DCD"/>
<path d="M24.9453 20.8936H43.5161V47.3018H40.7902V35.2052H40.7635C40.4621 31.862 37.6524 29.2419 34.2307 29.2419C30.8092 29.2419 27.9993 31.862 27.6981 35.2052H27.6714V47.3018H24.9453V20.8936Z" fill="white"/>
<path d="M20 24.6416L21.1074 28.3898H22.0445V43.5534C21.574 43.5534 21.1926 43.9347 21.1926 44.4052V45.4273H21.0222C20.5518 45.4273 20.1704 45.8087 20.1704 46.2792V47.3016H29.7115V46.2792C29.7115 45.8087 29.3299 45.4273 28.8596 45.4273H28.6891V44.4052C28.6891 43.9347 28.3077 43.5534 27.8372 43.5534H26.815V24.6416H20Z" fill="white"/>
<path d="M40.9602 43.5534C40.4897 43.5534 40.1083 43.9347 40.1083 44.4052V45.4273H39.9378C39.4673 45.4273 39.0859 45.8087 39.0859 46.2792V47.3016H48.6269V46.2792C48.6269 45.8087 48.2456 45.4273 47.7751 45.4273H47.6048V44.4052C47.6048 43.9347 47.2232 43.5534 46.753 43.5534V28.3898H47.6899L48.7974 24.6416H41.9823V43.5534H40.9602Z" fill="white"/>
</g>
<defs>
<clipPath id="clip0_359_3991">
<rect width="68.1949" height="68.1949" fill="white"/>
</clipPath>
</defs>
</svg>
