<svg width="206" height="123" viewBox="0 0 206 123" fill="none" xmlns="http://www.w3.org/2000/svg">
<g clip-path="url(#clip0_279_4761)">
<path opacity="0.27" d="M127.91 111.479L129.298 112.863L127.91 114.248L128.732 115.069L130.12 113.684L131.507 115.069L132.33 114.248L130.942 112.863L132.33 111.479L131.507 110.658L130.12 112.043L128.732 110.658L127.91 111.479Z" fill="#AFCAB7"/>
<g opacity="0.22">
<path d="M36.6789 6.72286C36.3159 6.72286 36.0215 6.42908 36.0215 6.06675C36.0215 5.70442 36.3159 5.41064 36.6789 5.41064C37.042 5.41064 37.3364 5.70442 37.3364 6.06675C37.3364 6.42908 37.0424 6.72286 36.6789 6.72286Z" fill="#465A94"/>
<path d="M30.2297 6.72286C29.8666 6.72286 29.5723 6.42908 29.5723 6.06675C29.5723 5.70442 29.8666 5.41064 30.2297 5.41064C30.5928 5.41064 30.8872 5.70442 30.8872 6.06675C30.8872 6.42908 30.5928 6.72286 30.2297 6.72286Z" fill="#465A94"/>
<path d="M30.2297 15.0971C30.5928 15.0971 30.8872 14.8034 30.8872 14.441C30.8872 14.0787 30.5928 13.7849 30.2297 13.7849C29.8666 13.7849 29.5723 14.0787 29.5723 14.441C29.5723 14.8034 29.8666 15.0971 30.2297 15.0971Z" fill="#465A94"/>
<path d="M23.7805 6.72286C23.4174 6.72286 23.123 6.42908 23.123 6.06675C23.123 5.70442 23.4174 5.41064 23.7805 5.41064C24.1436 5.41064 24.438 5.70442 24.438 6.06675C24.438 6.42908 24.1436 6.72286 23.7805 6.72286Z" fill="#465A94"/>
<path d="M23.7805 15.0971C24.1436 15.0971 24.438 14.8034 24.438 14.441C24.438 14.0787 24.1436 13.7849 23.7805 13.7849C23.4174 13.7849 23.123 14.0787 23.123 14.441C23.123 14.8034 23.4174 15.0971 23.7805 15.0971Z" fill="#465A94"/>
<path d="M23.7805 23.4716C23.4174 23.4716 23.123 23.1779 23.123 22.8155C23.123 22.4532 23.4174 22.1594 23.7805 22.1594C24.1436 22.1594 24.438 22.4532 24.438 22.8155C24.438 23.1779 24.1436 23.4716 23.7805 23.4716Z" fill="#465A94"/>
<path d="M17.3293 6.72286C16.9663 6.72286 16.6719 6.42908 16.6719 6.06675C16.6719 5.70442 16.9663 5.41064 17.3293 5.41064C17.6924 5.41064 17.9868 5.70442 17.9868 6.06675C17.9868 6.42908 17.6924 6.72286 17.3293 6.72286Z" fill="#465A94"/>
<path d="M17.3293 15.0971C16.9663 15.0971 16.6719 14.8033 16.6719 14.441C16.6719 14.0787 16.9663 13.7849 17.3293 13.7849C17.6924 13.7849 17.9868 14.0787 17.9868 14.441C17.9868 14.8033 17.6924 15.0971 17.3293 15.0971Z" fill="#465A94"/>
<path d="M17.3293 23.4714C16.9663 23.4714 16.6719 23.1776 16.6719 22.8153C16.6719 22.453 16.9663 22.1592 17.3293 22.1592C17.6924 22.1592 17.9868 22.453 17.9868 22.8153C17.9868 23.1776 17.6924 23.4714 17.3293 23.4714Z" fill="#465A94"/>
<path d="M17.3293 31.8459C16.9663 31.8459 16.6719 31.5521 16.6719 31.1898C16.6719 30.8275 16.9663 30.5337 17.3293 30.5337C17.6924 30.5337 17.9868 30.8275 17.9868 31.1898C17.9868 31.5521 17.6924 31.8459 17.3293 31.8459Z" fill="#465A94"/>
<path d="M10.8782 6.72286C10.5151 6.72286 10.2207 6.42908 10.2207 6.06675C10.2207 5.70442 10.5151 5.41064 10.8782 5.41064C11.2412 5.41064 11.5356 5.70442 11.5356 6.06675C11.5356 6.42908 11.2412 6.72286 10.8782 6.72286Z" fill="#465A94"/>
<path d="M10.8782 15.0971C11.2413 15.0971 11.5356 14.8034 11.5356 14.441C11.5356 14.0787 11.2413 13.7849 10.8782 13.7849C10.5151 13.7849 10.2207 14.0787 10.2207 14.441C10.2207 14.8034 10.5151 15.0971 10.8782 15.0971Z" fill="#465A94"/>
<path d="M10.8782 23.4714C10.5151 23.4714 10.2207 23.1776 10.2207 22.8153C10.2207 22.453 10.5151 22.1592 10.8782 22.1592C11.2412 22.1592 11.5356 22.453 11.5356 22.8153C11.5356 23.1776 11.2412 23.4714 10.8782 23.4714Z" fill="#465A94"/>
<path d="M10.8782 31.8459C11.2413 31.8459 11.5356 31.5522 11.5356 31.1898C11.5356 30.8274 11.2413 30.5337 10.8782 30.5337C10.5151 30.5337 10.2207 30.8274 10.2207 31.1898C10.2207 31.5522 10.5151 31.8459 10.8782 31.8459Z" fill="#465A94"/>
<path d="M10.8782 40.2204C11.2413 40.2204 11.5356 39.9267 11.5356 39.5643C11.5356 39.202 11.2413 38.9082 10.8782 38.9082C10.5151 38.9082 10.2207 39.202 10.2207 39.5643C10.2207 39.9267 10.5151 40.2204 10.8782 40.2204Z" fill="#465A94"/>
<path d="M4.42894 6.72286C4.06587 6.72286 3.77148 6.42908 3.77148 6.06675C3.77148 5.70442 4.06587 5.41064 4.42894 5.41064C4.79201 5.41064 5.08639 5.70442 5.08639 6.06675C5.08639 6.42908 4.79201 6.72286 4.42894 6.72286Z" fill="#465A94"/>
<path d="M4.42894 15.0971C4.79204 15.0971 5.08639 14.8034 5.08639 14.441C5.08639 14.0787 4.79204 13.7849 4.42894 13.7849C4.06584 13.7849 3.77148 14.0787 3.77148 14.441C3.77148 14.8034 4.06584 15.0971 4.42894 15.0971Z" fill="#465A94"/>
<path d="M4.42894 23.4716C4.06587 23.4716 3.77148 23.1779 3.77148 22.8155C3.77148 22.4532 4.06587 22.1594 4.42894 22.1594C4.79201 22.1594 5.08639 22.4532 5.08639 22.8155C5.08639 23.1779 4.79201 23.4716 4.42894 23.4716Z" fill="#465A94"/>
<path d="M4.42894 31.8459C4.79204 31.8459 5.08639 31.5522 5.08639 31.1898C5.08639 30.8274 4.79204 30.5337 4.42894 30.5337C4.06584 30.5337 3.77148 30.8274 3.77148 31.1898C3.77148 31.5522 4.06584 31.8459 4.42894 31.8459Z" fill="#465A94"/>
<path d="M4.42894 40.2202C4.79204 40.2202 5.08639 39.9264 5.08639 39.5641C5.08639 39.2017 4.79204 38.908 4.42894 38.908C4.06584 38.908 3.77148 39.2017 3.77148 39.5641C3.77148 39.9264 4.06584 40.2202 4.42894 40.2202Z" fill="#465A94"/>
<path d="M4.42894 48.5944C4.06587 48.5944 3.77148 48.3007 3.77148 47.9383C3.77148 47.576 4.06587 47.2822 4.42894 47.2822C4.79201 47.2822 5.08639 47.576 5.08639 47.9383C5.08639 48.3007 4.79201 48.5944 4.42894 48.5944Z" fill="#465A94"/>
</g>
<g opacity="0.32">
<path d="M64.6568 18.507C64.124 21.3603 61.374 23.2421 58.5148 22.71C55.6556 22.1784 53.7699 19.434 54.3031 16.5807C54.8362 13.7273 57.5858 11.8455 60.445 12.3776C63.3042 12.9097 65.1899 15.6536 64.6568 18.507Z" fill="#FEBC10"/>
<path d="M62.5162 10.015C65.2507 10.015 67.4753 12.2351 67.4753 14.9644C67.4753 17.6937 65.2507 19.9133 62.5162 19.9133C59.7817 19.9133 57.5566 17.6933 57.5566 14.9644C57.5566 12.2355 59.7817 10.015 62.5162 10.015ZM62.5162 9.70898C59.6079 9.70898 57.25 12.0617 57.25 14.9644C57.25 17.8667 59.6075 20.2193 62.5162 20.2193C65.4244 20.2193 67.782 17.8667 67.782 14.9644C67.782 12.0617 65.4244 9.70898 62.5162 9.70898Z" fill="#211F1C"/>
</g>
<path d="M194.007 120.041C193.2 120.041 192.547 120.693 192.547 121.497C192.547 122.302 193.201 122.954 194.007 122.954C194.813 122.954 195.466 122.302 195.466 121.497C195.467 120.693 194.813 120.041 194.007 120.041ZM194.007 122.474C193.466 122.474 193.028 122.037 193.028 121.498C193.028 120.959 193.466 120.521 194.007 120.521C194.547 120.521 194.985 120.958 194.985 121.498C194.985 122.037 194.547 122.474 194.007 122.474Z" fill="#465A94"/>
<g opacity="0.22">
<path d="M179.371 50.3595L185.497 41.8713L190.818 50.3595H179.371Z" fill="#AFCAB7"/>
<path d="M189.405 40.6553L194.191 48.2887H183.896L189.405 40.6553ZM189.423 40.1069L183.297 48.5947H194.745L189.423 40.1069Z" fill="#211F1C"/>
</g>
<path opacity="0.32" d="M164.88 12.945C166.711 12.945 168.196 14.4266 168.196 16.2545H169.829C169.829 13.5273 167.613 11.3162 164.881 11.3162C162.147 11.3162 159.932 13.5273 159.932 16.2545H161.564C161.564 14.4266 163.048 12.945 164.88 12.945Z" fill="#465A94"/>
<path d="M95.0336 39.9451V66.8499H83.19C82.14 66.8499 81.2871 65.9984 81.2871 64.9481V41.844C81.2871 40.7938 82.14 39.9451 83.19 39.9451H95.0336Z" fill="#1D253D"/>
<path d="M141.142 52.6838C139.924 64.1232 133.414 66.8501 133.414 66.8501H95.0332V39.9452C105.803 37.8785 110.932 24.6421 109.822 18.0044C110.019 16.5114 110.021 15.1253 109.83 13.9469C110.591 11.6759 112.835 12.1316 112.835 12.1316C120.24 13.2896 120.662 28.6212 120.605 33.6195C120.594 34.4866 121.261 35.2121 122.13 35.2725C124.96 35.4638 131.131 36.0216 136.538 37.4338C140.087 38.3612 141.559 39.2882 141.995 41.3157C142.457 43.4526 141.767 46.8135 141.142 52.6838Z" fill="#F3C56A"/>
<path d="M95.0336 39.9451V62.753H83.19C82.14 62.753 81.2871 61.9018 81.2871 60.854V41.8444C81.2871 40.7942 82.14 39.9455 83.19 39.9455H95.0336V39.9451Z" fill="#465A94"/>
<path d="M141.995 41.3153C141.806 43.1856 141.465 45.551 141.142 48.5871C139.924 60.0265 133.414 62.7534 133.414 62.7534H95.0332V39.9455C100.402 38.9152 104.581 34.9537 107.113 30.2728C108.94 26.8964 109.511 23.0871 109.753 19.3051C109.895 17.0952 109.032 11.3592 112.835 12.1316C120.24 13.2895 120.662 28.6211 120.605 33.6195C120.594 34.4865 121.261 35.212 122.13 35.2724C124.96 35.4637 131.131 36.0215 136.538 37.4337C140.087 38.3603 141.559 39.2878 141.995 41.3153Z" fill="#FEB12F"/>
<path d="M118.307 101.525C118.509 105.44 118.865 109.347 119.374 113.235C119.517 114.324 119.672 115.411 119.839 116.498C119.865 116.664 119.602 116.674 119.577 116.509C118.982 112.634 118.539 108.735 118.251 104.825C118.17 103.73 118.102 102.633 118.045 101.536C118.036 101.367 118.298 101.356 118.307 101.525Z" fill="#1D253D"/>
<path d="M170.603 50.8672L176.502 62.7942L189.691 64.707L180.148 73.9909L182.4 87.1004L170.603 80.911L158.807 87.1004L161.059 73.9909L151.516 64.707L164.705 62.7942L170.603 50.8672Z" fill="#FEB12F"/>
<path d="M156.787 63.9424L151.516 64.7066L161.06 73.9905L158.807 87.0995L170.604 80.9102L182.401 87.0995L180.489 75.9743C171.31 75.5846 162.193 71.3036 156.787 63.9424Z" fill="#F3C56A"/>
<path d="M48.6472 128.442C50.7745 128.642 52.9456 128.27 54.891 127.391C56.6883 126.578 58.2657 125.314 59.4756 123.761C60.1449 122.902 60.6956 121.955 61.1155 120.951C61.1769 120.804 61.3956 120.92 61.3347 121.066C60.5705 122.894 59.3644 124.528 57.8499 125.807C56.2419 127.165 54.2928 128.094 52.226 128.5C51.0284 128.736 49.8067 128.797 48.592 128.683C48.4342 128.668 48.4906 128.427 48.6472 128.442Z" fill="#1D253D"/>
<path d="M50.1723 43.4746L56.0705 55.4016L69.2601 57.3145L59.716 66.5983L61.9692 79.7078L50.1723 73.5184L38.3749 79.7078L40.6281 66.5983L31.084 57.3145L44.2736 55.4016L50.1723 43.4746Z" fill="#FEB12F"/>
<path d="M36.3555 56.5503L31.084 57.3145L40.6281 66.5984L38.3753 79.7074L50.1723 73.5181L61.9692 79.7074L60.0574 68.5822C50.8784 68.1921 41.7611 63.9111 36.3555 56.5503Z" fill="#F3C56A"/>
</g>
<defs>
<clipPath id="clip0_279_4761">
<rect width="204.432" height="122" fill="white" transform="translate(0.783203 0.760742)"/>
</clipPath>
</defs>
</svg>
