<svg width="20" height="14" viewBox="0 0 20 14" fill="none" xmlns="http://www.w3.org/2000/svg">
<g clip-path="url(#clip0_2011_4440)">
<path fill-rule="evenodd" clip-rule="evenodd" d="M4.99289 2.05731L0 7C0.99867 7.98865 2.1395 8.82185 3.38332 9.4737C3.72712 10.3765 4.26601 11.2231 5 11.9497C7.76145 14.6834 12.2386 14.6834 15 11.9497C15.734 11.2231 16.2729 10.3765 16.6167 9.47365C17.8605 8.82185 19.0013 7.98865 20 7L15.0112 2.06133C15.0075 2.05763 15.0037 2.05394 15 2.05025C12.2386 -0.683416 7.76145 -0.683416 5 2.05025C4.99763 2.0526 4.99526 2.05495 4.99289 2.05731ZM14.5223 10.3654C13.0673 10.8515 11.5398 11.1005 10 11.1005C8.46015 11.1005 6.9328 10.8515 5.4778 10.3654C5.63545 10.5725 5.8095 10.7712 6 10.9598C8.20915 13.1467 11.7908 13.1467 14 10.9598C14.1905 10.7712 14.3646 10.5725 14.5223 10.3654ZM6.10255 2.9412C6.4777 3.18655 6.8766 3.39651 7.294 3.56768C8.1519 3.91946 9.0714 4.10052 10 4.10052C10.9286 4.10052 11.8481 3.91946 12.706 3.56768C13.1234 3.39651 13.5223 3.18655 13.8975 2.94119C11.7159 0.886264 8.2841 0.886269 6.10255 2.9412Z" fill="#5773FF"/>
</g>
<defs>
<clipPath id="clip0_2011_4440">
<rect width="20" height="14" fill="white"/>
</clipPath>
</defs>
</svg>
