<svg width="16" height="17" viewBox="0 0 16 17" fill="none" xmlns="http://www.w3.org/2000/svg">
<path d="M14.5787 11.322V3.32291C14.5787 2.52764 13.9292 1.93782 13.1405 2.00409H13.1008C11.7091 2.12338 9.59499 2.83249 8.41534 3.57474L8.30268 3.64764C8.11049 3.76693 7.79238 3.76693 7.6002 3.64764L7.43451 3.54823C6.25487 2.81261 4.14741 2.11013 2.7557 1.99746C1.96706 1.93119 1.32422 2.52764 1.32422 3.31628V11.322C1.32422 11.9582 1.84114 12.5546 2.47735 12.6341L2.66954 12.6607C4.10765 12.8528 6.32777 13.5818 7.6002 14.2777L7.6267 14.291C7.80564 14.3904 8.09061 14.3904 8.26292 14.291C9.53534 13.5885 11.7621 12.8528 13.2068 12.6607L13.4255 12.6341C14.0617 12.5546 14.5787 11.9582 14.5787 11.322Z" stroke="#0E1F38" stroke-width="1.49112" stroke-linecap="round" stroke-linejoin="round"/>
<path d="M7.94922 3.86646V13.8073" stroke="#0E1F38" stroke-width="1.49112" stroke-linecap="round" stroke-linejoin="round"/>
<path d="M5.13566 5.85449H3.64453" stroke="#0E1F38" stroke-width="1.49112" stroke-linecap="round" stroke-linejoin="round"/>
<path d="M5.6327 7.84277H3.64453" stroke="#0E1F38" stroke-width="1.49112" stroke-linecap="round" stroke-linejoin="round"/>
</svg>
