<svg width="70" height="67" viewBox="0 0 70 67" fill="none" xmlns="http://www.w3.org/2000/svg">
<g clip-path="url(#clip0_359_4002)">
<path d="M36.3479 0.533691H32.8777C14.7975 0.533691 0.140625 15.1906 0.140625 33.2707C0.140625 51.3509 14.7975 66.0078 32.8777 66.0078H36.3479C54.428 66.0078 69.0849 51.3509 69.0849 33.2707C69.0849 15.1906 54.428 0.533691 36.3479 0.533691Z" fill="white"/>
<path d="M44.9963 16.9492H50.534L38.4358 30.7767L52.6684 49.5927H41.5243L32.796 38.1808L22.8088 49.5927H17.2678L30.208 34.8027L16.5547 16.9492H27.9815L35.8712 27.38L44.9963 16.9492ZM43.0528 46.2781H46.1213L26.3142 20.0896H23.0215L43.0528 46.2781Z" fill="#121212"/>
</g>
<defs>
<clipPath id="clip0_359_4002">
<rect width="68.9443" height="65.6612" fill="white" transform="translate(0.140625 0.533691)"/>
</clipPath>
</defs>
</svg>
